<?xml version="1.0" encoding="utf-8"?>
<!-- Generator: Adobe Illustrator 22.1.0, SVG Export Plug-In . SVG Version: 6.00 Build 0)  -->
<svg version="1.1" id="Capa_1" xmlns="http://www.w3.org/2000/svg" xmlns:xlink="http://www.w3.org/1999/xlink" x="0px" y="0px"
	 viewBox="0 0 25.419 22.586" enable-background="new 0 0 25.419 22.586" xml:space="preserve">
<g>
	<path fill="#F16928" d="M7.385,13.099c0.715,0,1.405-0.046,2.058-0.132V5.805C8.79,5.719,8.1,5.673,7.385,5.673
		C3.307,5.673,0,7.173,0,9.023v0.727C0,11.599,3.307,13.099,7.385,13.099L7.385,13.099z M7.385,13.099"/>
	<path fill="#F16928" d="M7.385,16.838c0.715,0,1.405-0.046,2.058-0.132v-2.099C8.79,14.693,8.1,14.74,7.385,14.74
		c-3.56,0-6.532-1.143-7.23-2.663C0.054,12.298,0,12.527,0,12.762v0.727C0,15.339,3.307,16.838,7.385,16.838L7.385,16.838z
		 M7.385,16.838"/>
	<path fill="#F16928" d="M9.444,18.51v-0.163C8.79,18.433,8.1,18.48,7.385,18.48c-3.56,0-6.532-1.143-7.23-2.663
		C0.054,16.038,0,16.267,0,16.502v0.726c0,1.85,3.307,3.35,7.385,3.35c0.816,0,1.6-0.06,2.334-0.171
		c-0.182-0.372-0.276-0.764-0.276-1.171V18.51z M9.444,18.51"/>
	<path fill="#F16928" d="M18.034,0c-4.079,0-7.386,1.5-7.386,3.35v0.727c0,1.85,3.307,3.35,7.386,3.35c4.079,0,7.385-1.5,7.385-3.35
		V3.35C25.419,1.5,22.113,0,18.034,0L18.034,0z M18.034,0"/>
	<path fill="#F16928" d="M18.034,9.067c-3.56,0-6.532-1.143-7.23-2.663c-0.102,0.221-0.155,0.451-0.155,0.686v0.727
		c0,1.85,3.307,3.35,7.386,3.35c4.079,0,7.385-1.5,7.385-3.35V7.089c0-0.235-0.054-0.465-0.155-0.686
		C24.566,7.924,21.595,9.067,18.034,9.067L18.034,9.067z M18.034,9.067"/>
	<path fill="#F16928" d="M18.034,12.807c-3.56,0-6.532-1.143-7.23-2.663c-0.102,0.222-0.155,0.451-0.155,0.686v0.726
		c0,1.85,3.307,3.35,7.386,3.35c4.079,0,7.385-1.5,7.385-3.35v-0.726c0-0.235-0.054-0.465-0.155-0.686
		C24.566,11.664,21.595,12.807,18.034,12.807L18.034,12.807z M18.034,12.807"/>
	<path fill="#F16928" d="M18.034,16.748c-3.56,0-6.532-1.143-7.23-2.664c-0.102,0.222-0.155,0.451-0.155,0.686v0.727
		c0,1.85,3.307,3.35,7.386,3.35c4.079,0,7.385-1.5,7.385-3.35v-0.727c0-0.235-0.054-0.465-0.155-0.686
		C24.566,15.605,21.595,16.748,18.034,16.748L18.034,16.748z M18.034,16.748"/>
	<path fill="#F16928" d="M18.034,20.488c-3.56,0-6.532-1.143-7.23-2.663c-0.102,0.222-0.155,0.451-0.155,0.686v0.726
		c0,1.85,3.307,3.35,7.386,3.35c4.079,0,7.385-1.5,7.385-3.35V18.51c0-0.235-0.054-0.465-0.155-0.686
		C24.566,19.345,21.595,20.488,18.034,20.488L18.034,20.488z M18.034,20.488"/>
</g>
</svg>
