<?xml version="1.0" encoding="utf-8"?>
<!-- Generator: Adobe Illustrator 22.1.0, SVG Export Plug-In . SVG Version: 6.00 Build 0)  -->
<svg version="1.1" id="Capa_1" xmlns="http://www.w3.org/2000/svg" xmlns:xlink="http://www.w3.org/1999/xlink" x="0px" y="0px"
	 viewBox="0 0 21.371 21.24" enable-background="new 0 0 21.371 21.24" xml:space="preserve">
<g>
	<path fill="#F16928" d="M8.171,8.59h4.845c0.434,0,0.786-0.352,0.786-0.786c0-0.434-0.352-0.786-0.786-0.786H8.171
		c-0.434,0-0.786,0.352-0.786,0.786C7.385,8.238,7.737,8.59,8.171,8.59z"/>
	<path fill="#F16928" d="M16.683,10.685H8.171c-0.434,0-0.786,0.352-0.786,0.786s0.352,0.786,0.786,0.786h8.512
		c0.434,0,0.786-0.352,0.786-0.786S17.117,10.685,16.683,10.685z"/>
	<path fill="#F16928" d="M20.908,0.096c-0.282-0.127-0.612-0.077-0.843,0.128l-2.2,1.946L15.661,0.2
		c-0.298-0.267-0.749-0.267-1.048,0l-2.2,1.967l-2.2-1.967c-0.298-0.267-0.749-0.267-1.047,0L6.964,2.17l-2.2-1.946
		C4.532,0.019,4.202-0.031,3.92,0.096C3.638,0.223,3.457,0.503,3.457,0.812v13.985H0.786C0.352,14.797,0,15.149,0,15.583v1.912
		c0,2.021,1.61,3.673,3.614,3.743v0.003h13.828v-0.005c0.061,0.003,0.122,0.005,0.183,0.005c2.065,0,3.745-1.68,3.745-3.745V0.812
		C21.371,0.503,21.189,0.223,20.908,0.096z M1.571,17.495v-1.126H13.88v1.126c0,0.81,0.258,1.56,0.697,2.174H3.745
		C2.546,19.668,1.571,18.693,1.571,17.495z M19.799,17.495c0,1.198-0.975,2.174-2.174,2.174c-1.198,0-2.174-0.975-2.174-2.174
		v-1.912c0-0.434-0.352-0.786-0.786-0.786H5.028V2.556L6.446,3.81C6.745,4.074,7.193,4.073,7.49,3.807l2.2-1.967l2.2,1.967
		c0.298,0.267,0.749,0.267,1.048,0l2.2-1.967l2.2,1.967c0.297,0.266,0.746,0.267,1.044,0.003l1.417-1.254V17.495z"/>
</g>
</svg>
