<?xml version="1.0" encoding="utf-8"?>
<!-- Generator: Adobe Illustrator 22.1.0, SVG Export Plug-In . SVG Version: 6.00 Build 0)  -->
<svg version="1.1" id="Capa_1" xmlns="http://www.w3.org/2000/svg" xmlns:xlink="http://www.w3.org/1999/xlink" x="0px" y="0px"
	 viewBox="0 0 35.049 27.327" enable-background="new 0 0 35.049 27.327" xml:space="preserve">
<g>
	<path fill="#F16928" d="M16.441,21.951c-1.069,0-1.938-0.87-1.938-1.939v-3.061c0-1.069,0.869-1.938,1.938-1.938h7.253v-3.234
		c0-1.181-0.961-2.142-2.142-2.142h-1.455l-0.385-2.439c-0.03-0.188-0.137-0.355-0.296-0.46c-0.158-0.105-0.354-0.139-0.539-0.094
		l-1.625,0.399l-0.58-1.221c-0.08-0.167-0.224-0.295-0.399-0.354c-0.176-0.059-0.368-0.043-0.531,0.043L7.887,9.637H2.143
		C0.961,9.637,0,10.598,0,11.779v13.405c0,1.182,0.961,2.143,2.143,2.143h19.409c1.181,0,2.142-0.961,2.142-2.143v-3.234H16.441z
		 M18.483,8.142l0.237,1.495h-0.237l-0.636-1.339L18.483,8.142z M15.747,7.045l1.23,2.592h-6.165L15.747,7.045z M16.441,16.374
		h7.317c0.319,0,0.578,0.259,0.578,0.578v3.061c0,0.319-0.26,0.578-0.578,0.578h-7.317c-0.319,0-0.578-0.26-0.578-0.578v-3.061
		C15.863,16.633,16.122,16.374,16.441,16.374L16.441,16.374z M16.441,16.374"/>
	<path fill="#F16928" d="M27.887,0.148c-0.037,0.089-0.016,0.191,0.051,0.258l1.836,1.836l-4.189,4.189
		c-0.092,0.092-0.092,0.243,0,0.335l2.681,2.681c0.092,0.092,0.243,0.092,0.335,0l4.189-4.189l1.843,1.843
		c0.068,0.068,0.17,0.088,0.258,0.052c0.088-0.037,0.146-0.123,0.146-0.219l0.011-6.697c0-0.063-0.025-0.123-0.069-0.168l0,0
		C34.936,0.025,34.875,0,34.813,0l-6.706,0.001C28.01,0.001,27.924,0.059,27.887,0.148L27.887,0.148z"/>
</g>
</svg>
