<?xml version="1.0" encoding="utf-8"?>
<!-- Generator: Adobe Illustrator 22.1.0, SVG Export Plug-In . SVG Version: 6.00 Build 0)  -->
<svg version="1.1" id="Capa_1" xmlns="http://www.w3.org/2000/svg" xmlns:xlink="http://www.w3.org/1999/xlink" x="0px" y="0px"
	 viewBox="0 0 71.843 79.825" enable-background="new 0 0 71.843 79.825" xml:space="preserve">
<g>
	<path fill="#F16928" d="M63.86,71.843H7.983V27.939H63.86V71.843L63.86,71.843z M63.86,7.983h-3.991V0h-7.983v7.983h-31.93V0
		h-7.983v7.983H7.983c-4.41,0-7.943,3.572-7.943,7.983L0,71.843c0,4.41,3.572,7.983,7.983,7.983H63.86
		c4.41,0,7.983-3.572,7.983-7.983V15.965C71.843,11.555,68.271,7.983,63.86,7.983L63.86,7.983z M54.002,40.152l-4.231-4.231
		L30.294,55.399l-8.462-8.462l-4.231,4.231L30.294,63.86L54.002,40.152L54.002,40.152L54.002,40.152z"/>
</g>
</svg>
