<?xml version="1.0" encoding="utf-8"?>
<!-- Generator: Adobe Illustrator 22.1.0, SVG Export Plug-In . SVG Version: 6.00 Build 0)  -->
<svg version="1.1" id="Capa_1" xmlns="http://www.w3.org/2000/svg" xmlns:xlink="http://www.w3.org/1999/xlink" x="0px" y="0px"
	 viewBox="0 0 114 124.875" enable-background="new 0 0 114 124.875" xml:space="preserve">
<g>
	<g>
		<g>
			<g>
				<path fill="#182F58" d="M67.66,96.731c-0.817-1.499-0.931-3.63-0.341-6.393c0.589-2.762,1.608-4.888,3.057-6.379
					c1.449-1.491,3.226-2.236,5.332-2.236c1.112,0,2.042,0.21,2.795,0.626l3.789-5.912c-1.471-0.534-3.218-0.804-5.245-0.804
					c-4.416,0-8.055,1.269-10.917,3.806l-4.631,21.852c0.803,1.116,1.871,1.981,3.202,2.595l3.858-6.021
					C68.203,97.553,67.903,97.176,67.66,96.731z"/>
				<path fill="#F16922" d="M89.212,90.54c-0.882,4.149-2.844,7.634-5.83,10.603l-0.593,2.672h7.176l3.158-14.785
					c0.354-1.702,0.885-3.038,1.592-4.134c1.348-2.072,3.243-3.077,5.685-3.077c1.988,0,3.184,0.723,3.588,2.138
					c0.236,0.775,0.193,1.772-0.126,3.22l-3.537,16.638h7.378l3.942-18.424c0.724-3.453,0.341-5.864-1.15-7.355
					c-1.491-1.491-3.659-2.206-6.506-2.206c-2.274,0-4.27,0.571-5.988,1.683c-0.96,0.623-2.055,1.517-3.285,2.932l0.859-4.142
					h-6.949l-0.678,3.326C89.651,82.694,90.079,86.45,89.212,90.54z"/>
				<path fill="#F16922" d="M87.349,81.29c-0.107-0.245-0.219-0.488-0.342-0.726c-0.097-0.188-0.2-0.375-0.307-0.559
					c-0.017-0.028-0.036-0.055-0.053-0.083c-0.593-0.989-1.367-1.805-2.316-2.452l-4.203,6.559c0.783,1.487,0.887,3.589,0.306,6.31
					c-0.59,2.763-1.609,4.894-3.058,6.393c-1.448,1.5-3.226,2.249-5.331,2.249c-0.509,0-0.98-0.045-1.414-0.133l-3.704,5.78
					c1.149,0.259,2.432,0.392,3.855,0.392c4.696,0,8.507-1.415,11.438-4.242c0.023-0.023,0.048-0.044,0.072-0.067
					c0.191-0.186,0.377-0.376,0.559-0.567c0.223-0.235,0.438-0.475,0.648-0.717c2.257-2.602,3.756-5.63,4.49-9.088
					C88.71,86.933,88.494,83.917,87.349,81.29z"/>
			</g>
			<polygon fill="#182F58" points="34.371,67.637 33.717,67.637 33.063,67.637 27.953,67.637 14.527,94.422 12.661,67.637 2,67.637 
				7.33,103.815 17.358,103.815 30.074,81.866 31.113,80.12 31.128,80.092 32.057,78.236 32.179,78.018 38.147,67.637 			"/>
			<path fill="#182F58" d="M32.457,101.784l1.385-6.534l0.103-0.485l0.103-0.485l0.695-3.273c0,0,0.001,0.001,0.001,0.001
				l0.119-0.564l0.124-0.592l1.501-7.084H30.86l-2.687,4.642l-3.496,16.405h7.302l0.22-0.916c0.002,0.002,0.004,0.047,0.006,0.049
				l0.124-0.567l0,0.011l0.128-0.606"/>
			<path fill="#182F58" d="M37.119,79.809l0.179-0.849l0.162-0.767c0.002-0.002,0.004-0.136,0.006-0.138l0.349-1.752h-3.32
				l-0.276,0.595l-2.557,4.495h5.122L37.119,79.809z"/>
			<path fill="#182F58" d="M58.18,76.303l-0.333,1.682c0.74,0.906,1.223,2.032,1.444,3.408h5.159l0.15-0.715l0.19-0.897l0.172-0.814
				c0.002-0.002,0.004-0.136,0.007-0.137l0.513-2.527L58.18,76.303L58.18,76.303z"/>
			<path fill="#182F58" d="M59.329,84.877l-0.099,0.78h-0.866h-2.167l-0.652,3.188c0.37,0.302,0.7,0.676,0.986,1.017l0.004,0.033
				l0.004,0.019c1.319,1.613,1.734,3.637,1.233,6.006c-0.639,2.957-2.271,5.405-4.853,7.269c-0.149,0.107-0.302,0.091-0.458,0.192
				l-0.118,0.435h7.302l0.538-2.419c0.002,0.003,0.004,0.049,0.006,0.052l0.146-0.667l0.154-0.721l3.665-17.291h-4.729
				C59.448,83.456,59.416,84.112,59.329,84.877z"/>
			<g>
				<path fill="#182F58" d="M55.135,84.969h0.496h0.496h1.962c0.266-2.201,0.001-4.223-0.793-5.594l-0.007-0.005
					c-0.112-0.193-0.237-0.415-0.37-0.589l-0.004,0.008c-0.123-0.161-0.252-0.343-0.394-0.488l-0.004,0.016
					c-0.199-0.204-0.416-0.372-0.652-0.545c-1.87-1.373-4.523-2.048-7.959-2.048c-3.622,0-6.624,0.919-9.008,2.747
					c-0.095,0.072-0.186,0.15-0.278,0.223l-2.532,11.95c1.129,0.874,2.877,1.623,5.248,2.246c4.11,1.027,6.46,1.752,7.05,2.174
					c0.59,0.421,0.8,1.036,0.632,1.844c-0.185,0.842-0.741,1.474-1.668,1.895c-0.926,0.422-2.097,0.632-3.512,0.632
					c-2.409,0-3.95-0.607-4.624-1.567c-0.404-0.54-0.547-1.344-0.43-2.857h-3.675l-1.569,7.53c1.737,1.549,4.595,2.389,8.58,2.389
					c3.77,0,6.803-0.653,9.112-2.014c0.017-0.01,0.028-0.013,0.05-0.023c0.003,0,0.005,0.003,0.005,0.002l0.03-0.018
					c0.199-0.112,0.359-0.229,0.535-0.351c0.059-0.041,0.143-0.08,0.201-0.121c0.139-0.101,0.286-0.203,0.42-0.308
					c2.153-1.681,3.514-3.806,4.069-6.376c0.438-2.071,0.096-3.798-1.033-5.179c-0.145-0.173-0.301-0.34-0.472-0.501
					c-0.131-0.125-0.284-0.246-0.431-0.364c-0.125-0.101-0.165-0.223-0.44-0.323v-0.001c0-0.004,0.038-0.007,0.032-0.011
					c-0.007-0.005,0.01-0.011,0.011-0.016c-0.808-0.547-1.795-1.013-2.947-1.401c-0.474-0.16-0.988-0.307-1.522-0.44
					c-4.094-0.944-6.459-1.609-7.082-1.996c-0.64-0.371-0.872-0.969-0.686-1.794c0.134-0.657,0.584-1.23,1.35-1.718
					c0.767-0.489,1.932-0.733,3.499-0.733c1.903,0,3.149,0.52,3.739,1.498c0.303,0.538,0.412,1.404,0.328,2.229L55.135,84.969
					L55.135,84.969z M51.285,102.898C51.285,102.898,51.284,102.898,51.285,102.898C51.284,102.898,51.285,102.898,51.285,102.898
					L51.285,102.898z"/>
			</g>
		</g>
	</g>
</g>
<g>
	<g>
		<path fill="#F27221" d="M36.05,7.244l37.433,0.072c2.681,0,4.862,2.181,4.862,4.862V32.48c0,2.681-2.181,4.862-4.862,4.862h-8.315
			h-1.628l-0.02,1.628l-0.187,14.929c-0.01,0.79-0.935,1.592-1.446,1.592c-0.009,0-0.015,0-0.02-0.001L36.259,38.394
			c-0.124-0.083-0.232-0.192-0.32-0.323l-0.066-0.097c-0.1-0.22-0.222-0.622-0.217-1.021L36.05,7.244 M34.422,5.592L34.007,36.93
			c-0.01,0.784,0.251,1.605,0.546,2.06c0.001,0.001,0.003,0.002,0.005,0.002c0.005,0,0.012-0.002,0.012-0.002
			c0.206,0.306,0.465,0.569,0.773,0.775l25.622,17.106c0.277,0.185,0.592,0.269,0.921,0.269c1.41,0,3.074-1.538,3.095-3.22
			l0.187-14.929h8.315c3.596,0,6.511-2.915,6.511-6.511V12.178c0-3.596-2.915-6.511-6.511-6.511L34.422,5.592L34.422,5.592z"/>
	</g>
	<path fill="#233156" d="M73.483,38.99h-38.93l-0.13-33.398l39.061,0.075c3.596,0,6.511,2.915,6.511,6.511v20.302
		C79.994,36.075,77.079,38.99,73.483,38.99z"/>
	<path fill="#F16922" d="M60.964,56.871L35.343,39.765c-0.87-0.581-1.352-1.602-1.336-2.835l0.416-31.338l29.393,19.661
		c0.968,0.646,1.502,1.781,1.485,3.15l-0.32,25.516C64.954,55.994,62.43,57.849,60.964,56.871z"/>
	<g>
		<g>
			<path fill="#FFFFFF" d="M74.013,14.122c-0.078-0.247-0.206-0.454-0.388-0.616c-0.177-0.165-0.383-0.271-0.618-0.319
				c-0.162-0.037-0.383-0.045-0.663-0.029c0.216-0.159,0.378-0.322,0.485-0.495c0.108-0.175,0.173-0.356,0.198-0.543
				c0.029-0.189,0.013-0.376-0.044-0.558c-0.079-0.25-0.227-0.457-0.441-0.623c-0.216-0.165-0.479-0.259-0.79-0.281
				c-0.119-0.011-0.257-0.005-0.404,0.013l-0.309-0.977l-0.936,0.296l0.288,0.911l-0.605,0.191l-0.288-0.911l-0.938,0.297
				l0.288,0.911l-1.431,0.453l0.242,0.766l0.216-0.068c0.147-0.046,0.25-0.064,0.31-0.054c0.058,0.01,0.107,0.034,0.144,0.073
				c0.036,0.038,0.078,0.139,0.13,0.304l0.977,3.088c0.051,0.161,0.074,0.266,0.067,0.321c-0.007,0.053-0.032,0.101-0.075,0.143
				c-0.044,0.041-0.138,0.085-0.285,0.132l-0.216,0.068l0.242,0.765l1.432-0.453l0.289,0.912l0.938-0.297l-0.289-0.912l0.604-0.191
				l0.289,0.912l0.938-0.297l-0.313-0.989c0.149-0.08,0.274-0.164,0.375-0.247c0.284-0.23,0.475-0.498,0.572-0.804
				C74.105,14.713,74.106,14.415,74.013,14.122z M69.727,12.09l0.606-0.192c0.354-0.112,0.61-0.168,0.761-0.168
				c0.152,0.002,0.28,0.041,0.383,0.119c0.108,0.082,0.184,0.196,0.23,0.342c0.044,0.139,0.044,0.274,0.001,0.408
				c-0.045,0.132-0.133,0.247-0.269,0.348c-0.134,0.102-0.361,0.203-0.681,0.305l-0.605,0.192L69.727,12.09z M72.526,14.975
				c-0.067,0.17-0.167,0.303-0.309,0.396c-0.14,0.092-0.328,0.175-0.563,0.25l-0.404,0.128c-0.135,0.043-0.22,0.061-0.254,0.057
				c-0.035-0.004-0.064-0.024-0.09-0.055c-0.019-0.028-0.057-0.125-0.113-0.296l-0.379-1.198l0.715-0.226
				c0.316-0.1,0.558-0.145,0.731-0.138c0.17,0.01,0.315,0.059,0.426,0.152c0.114,0.087,0.195,0.212,0.247,0.377
				C72.594,14.619,72.59,14.8,72.526,14.975z"/>
		</g>
		<g>
			<g>
				<path fill="#FFFFFF" d="M69.04,7.637c-3.39,1.073-5.274,4.703-4.202,8.092c1.073,3.39,4.702,5.274,8.092,4.202
					c3.39-1.073,5.274-4.703,4.202-8.092C76.06,8.449,72.43,6.565,69.04,7.637z M72.607,18.907c-2.825,0.894-5.85-0.677-6.744-3.502
					c-0.894-2.825,0.677-5.85,3.502-6.744c2.825-0.894,5.85,0.677,6.744,3.502C77.003,14.988,75.432,18.013,72.607,18.907z"/>
			</g>
		</g>
	</g>
	<path fill="#F27221" d="M34.422,5.592l39.061,0.075c3.596,0,6.511,2.915,6.511,6.511V32.48c0,3.596-2.915,6.511-6.511,6.511h-8.315
		L64.981,53.92c-0.021,1.682-1.685,3.22-3.095,3.22c-0.329,0-0.644-0.084-0.921-0.269L35.343,39.765
		c-0.309-0.206-0.567-0.468-0.773-0.775c0,0-0.007,0.002-0.012,0.002c-0.002,0-0.005,0-0.005-0.002
		c-0.295-0.455-0.556-1.276-0.546-2.06L34.422,5.592 M33.934,5.097l-0.007,0.489l-0.416,31.338
		c-0.012,0.929,0.306,1.843,0.626,2.336l0.146,0.225l0.035,0c0.214,0.27,0.465,0.502,0.749,0.691L60.69,57.283
		c0.35,0.233,0.752,0.352,1.196,0.352c0.81,0,1.714-0.42,2.418-1.124c0.733-0.733,1.16-1.675,1.172-2.585l0.181-14.441h7.826
		c3.863,0,7.005-3.143,7.005-7.005V12.178c0-3.863-3.143-7.005-7.005-7.005l-39.06-0.075L33.934,5.097L33.934,5.097z"/>
</g>
<g>
	<path fill="#F16922" d="M58.177,111.962c-0.199-0.288-0.466-0.512-0.8-0.67c-0.335-0.158-0.708-0.264-1.116-0.318
		c-0.409-0.055-0.804-0.082-1.185-0.082c-0.48,0-0.946,0.046-1.4,0.139c-0.454,0.093-0.871,0.248-1.249,0.465
		c-0.378,0.218-0.708,0.504-0.988,0.858c-0.281,0.354-0.482,0.798-0.604,1.331h2.172c0.112-0.425,0.341-0.738,0.685-0.939
		c0.344-0.201,0.723-0.302,1.137-0.302c0.153,0,0.311,0.014,0.479,0.041c0.166,0.027,0.32,0.079,0.46,0.155
		c0.141,0.076,0.254,0.18,0.341,0.31c0.087,0.131,0.121,0.305,0.102,0.522c-0.023,0.272-0.106,0.477-0.249,0.613
		c-0.142,0.136-0.35,0.24-0.623,0.31c-0.273,0.071-0.612,0.123-1.017,0.155c-0.406,0.033-0.884,0.082-1.434,0.147
		c-1.034,0.12-1.852,0.425-2.455,0.915c-0.603,0.49-0.939,1.143-1.009,1.96c-0.025,0.294,0.006,0.575,0.092,0.841
		c0.086,0.267,0.235,0.501,0.446,0.703c0.212,0.202,0.484,0.362,0.816,0.481c0.333,0.12,0.728,0.18,1.185,0.18
		c0.49,0,0.971-0.084,1.443-0.253c0.472-0.169,0.881-0.433,1.227-0.792l-0.072,0.833h2.319c-0.039-0.185-0.052-0.349-0.039-0.49
		c0.013-0.164,0.039-0.357,0.074-0.58c0.036-0.223,0.081-0.411,0.138-0.563l1.042-3.397c0.167-0.544,0.267-1.018,0.301-1.421
		C58.448,112.635,58.375,112.251,58.177,111.962z M55.279,116.332c-0.085,0.229-0.186,0.458-0.303,0.686
		c-0.118,0.229-0.268,0.433-0.452,0.613c-0.185,0.18-0.405,0.327-0.659,0.441c-0.255,0.115-0.562,0.171-0.922,0.171
		c-0.337,0-0.627-0.079-0.869-0.237c-0.243-0.158-0.35-0.394-0.323-0.71c0.022-0.261,0.09-0.477,0.203-0.646
		c0.112-0.169,0.252-0.302,0.417-0.4c0.166-0.098,0.355-0.171,0.566-0.22c0.211-0.049,0.427-0.084,0.646-0.106
		c0.339-0.022,0.679-0.051,1.02-0.09c0.341-0.038,0.666-0.144,0.975-0.319L55.279,116.332z"/>
	<polygon fill="#F16922" points="59.403,119.566 62.884,107.903 60.564,107.903 57.099,119.566 	"/>
	<polygon fill="#F16922" points="62.816,119.566 66.297,107.903 63.977,107.903 60.512,119.566 	"/>
	<path fill="#F16922" d="M79.595,111.121h-1.666l0.741-2.565h-2.319l-0.742,2.565h-1.487l-0.493,1.552h1.519l-1.334,4.525
		c-0.046,0.153-0.086,0.297-0.119,0.433c-0.034,0.136-0.055,0.259-0.064,0.367c-0.041,0.349-0.008,0.632,0.099,0.849
		c0.106,0.218,0.26,0.39,0.462,0.514c0.202,0.126,0.433,0.213,0.696,0.261c0.262,0.049,0.53,0.074,0.802,0.074
		c0.251,0,0.497-0.008,0.738-0.025c0.241-0.016,0.482-0.035,0.724-0.057l0.544-1.78c-0.275,0.033-0.554,0.049-0.837,0.049
		c-0.087,0-0.177-0.002-0.269-0.008c-0.092-0.006-0.175-0.03-0.247-0.074c-0.073-0.043-0.13-0.106-0.172-0.188
		c-0.042-0.082-0.057-0.199-0.044-0.351c0.002-0.033,0.013-0.084,0.03-0.155c0.017-0.071,0.04-0.149,0.07-0.237l1.225-4.198h1.65
		L79.595,111.121z"/>
	<path fill="#F16922" d="M72.438,111.815c-0.317-0.311-0.711-0.542-1.182-0.694c-0.472-0.152-1.002-0.229-1.589-0.229
		c-0.719,0-1.379,0.144-1.981,0.433c-0.602,0.288-1.123,0.675-1.561,1.16c-0.439,0.485-0.794,1.04-1.066,1.666
		c-0.271,0.626-0.436,1.277-0.494,1.952c-0.052,0.61-0.008,1.143,0.133,1.601c0.14,0.457,0.361,0.841,0.66,1.152
		c0.3,0.31,0.675,0.542,1.126,0.694c0.45,0.152,0.958,0.229,1.524,0.229c0.61,0,1.152-0.06,1.624-0.18
		c0.474-0.119,0.895-0.302,1.264-0.547c0.369-0.245,0.695-0.547,0.976-0.907c0.281-0.359,0.534-0.778,0.761-1.258h-2.319
		c-0.099,0.131-0.205,0.267-0.321,0.408c-0.116,0.141-0.246,0.267-0.392,0.375c-0.145,0.109-0.311,0.199-0.496,0.27
		c-0.186,0.071-0.393,0.106-0.622,0.106c-0.632,0-1.087-0.152-1.366-0.458c-0.279-0.304-0.397-0.702-0.355-1.192l0.018-0.212
		c0.004-0.044,0.007-0.087,0.011-0.131c0.004-0.043,0.013-0.093,0.028-0.147h6.223c0.127-0.468,0.209-0.909,0.244-1.323
		c0.052-0.61,0.003-1.146-0.148-1.609C72.988,112.512,72.755,112.126,72.438,111.815z M71.062,114.437h-3.871
		c0.108-0.24,0.233-0.468,0.377-0.686c0.143-0.218,0.315-0.408,0.515-0.572c0.198-0.163,0.427-0.294,0.686-0.392
		c0.259-0.098,0.551-0.147,0.879-0.147c0.337,0,0.605,0.052,0.803,0.155c0.198,0.104,0.344,0.242,0.438,0.416
		c0.094,0.174,0.151,0.368,0.171,0.58C71.08,114.004,71.08,114.219,71.062,114.437z"/>
	<polygon fill="#F16922" points="47.056,119.566 53.527,107.903 50.963,107.903 46.673,116.413 46.641,116.413 47.076,107.903 
		44.626,107.903 40.203,116.446 40.17,116.446 40.738,107.903 38.173,107.903 37.975,119.566 40.556,119.566 44.896,111.236 
		44.929,111.236 44.508,119.566 	"/>
</g>
</svg>
