<svg id="Capa_1" data-name="Capa 1" xmlns="http://www.w3.org/2000/svg" viewBox="0 0 114 124.87"><defs><style>.cls-1{fill:#253256;}.cls-2{fill:#bd542e;}.cls-3{fill:#d56930;}.cls-4{fill:#fff;}</style></defs><title>componente</title><path class="cls-1" d="M35.07,3.52l.18.12V3.58H81a7.66,7.66,0,0,1,7.65,7.66V35.1A7.66,7.66,0,0,1,81,42.76H71.24L71,60.31a4.09,4.09,0,0,1-3.64,3.79,1.88,1.88,0,0,1-1.08-.32L36.17,43.67a3.43,3.43,0,0,1-.87-.91h0v-.08a4.17,4.17,0,0,1-.65-2.34l.47-36.82m0-3.52a3.37,3.37,0,0,0-1.63.41,3.48,3.48,0,0,0-1.88,3.06l-.46,36.82A7.73,7.73,0,0,0,32,44a3.42,3.42,0,0,0,.83,1.27,6.58,6.58,0,0,0,1.43,1.32L64.34,66.71a5.48,5.48,0,0,0,3,.91,7.57,7.57,0,0,0,7.16-7.26l.17-14.08H81A11.18,11.18,0,0,0,92.19,35.1V11.24A11.18,11.18,0,0,0,81,.06H35.73A3.71,3.71,0,0,0,35.06,0Z"/><path class="cls-2" d="M35.25,3.58H81a7.65,7.65,0,0,1,7.65,7.65V35.1A7.65,7.65,0,0,1,81,42.76H35.25a0,0,0,0,1,0,0V3.58A0,0,0,0,1,35.25,3.58Z"/><path class="cls-3" d="M66.3,63.78,36.17,43.67a3.79,3.79,0,0,1-1.57-3.33l.47-36.82L69.65,26.61a4.21,4.21,0,0,1,1.75,3.7l-.38,30C71,62.75,68,64.93,66.3,63.78Z"/><path class="cls-4" d="M81.64,13.52a1.52,1.52,0,0,0-.46-.72,1.44,1.44,0,0,0-.72-.38,3.07,3.07,0,0,0-.78,0,2.39,2.39,0,0,0,.57-.58,1.77,1.77,0,0,0,.23-.64,1.35,1.35,0,0,0,0-.66,1.46,1.46,0,0,0-.52-.73A1.73,1.73,0,0,0,79,9.45a1.91,1.91,0,0,0-.47,0l-.37-1.15L77,8.67l.34,1.07-.71.22-.34-1.07-1.1.35.34,1.07-1.69.53.29.9.25-.08a1.07,1.07,0,0,1,.37-.06.28.28,0,0,1,.17.09,1.1,1.1,0,0,1,.15.35l1.15,3.63a1.12,1.12,0,0,1,.08.38.32.32,0,0,1-.09.17.84.84,0,0,1-.34.15l-.25.08.28.9,1.69-.53L78,17.89l1.1-.35-.34-1.07.71-.22.34,1.07,1.1-.35-.37-1.16a3.94,3.94,0,0,0,.45-.29,2.06,2.06,0,0,0,.67-.95A1.64,1.64,0,0,0,81.64,13.52Zm-5-2.39.71-.22a3.63,3.63,0,0,1,.9-.2.73.73,0,0,1,.45.14.82.82,0,0,1,.27.4.79.79,0,0,1,0,.48.83.83,0,0,1-.32.41,2.65,2.65,0,0,1-.8.36l-.71.22Zm3.29,3.39a1,1,0,0,1-.36.47,2.55,2.55,0,0,1-.66.29l-.48.15a.92.92,0,0,1-.3.07.15.15,0,0,1-.1-.06,1.91,1.91,0,0,1-.14-.35l-.44-1.41.84-.27a2.82,2.82,0,0,1,.86-.16.82.82,0,0,1,.5.18.88.88,0,0,1,.29.44A1,1,0,0,1,79.89,14.52Z"/><path class="cls-4" d="M75.79,5.9a7.58,7.58,0,1,0,9.52,4.94A7.59,7.59,0,0,0,75.79,5.9ZM80,19.15a6.32,6.32,0,1,1,4.11-7.93A6.33,6.33,0,0,1,80,19.15Z"/><path class="cls-1" d="M68.05,98.67q-1.27-2.34-.36-6.63a13.3,13.3,0,0,1,3.17-6.61,7.4,7.4,0,0,1,5.53-2.32,6,6,0,0,1,2.9.65l3.92-6.13a16,16,0,0,0-5.43-.83,16.44,16.44,0,0,0-11.32,4l-4.8,22.64A8.32,8.32,0,0,0,65,106.08l4-6.24A4.15,4.15,0,0,1,68.05,98.67Z"/><path class="cls-3" d="M90.38,92.25a21.38,21.38,0,0,1-6,11L83.73,106h7.43l3.28-15.33a12.19,12.19,0,0,1,1.65-4.28A6.6,6.6,0,0,1,102,83.21c2.06,0,3.3.75,3.72,2.22a6.75,6.75,0,0,1-.13,3.33L101.9,106h7.65l4.08-19.1c.75-3.58.36-6.07-1.19-7.62S108.65,77,105.7,77a11.2,11.2,0,0,0-6.21,1.75,16.16,16.16,0,0,0-3.4,3l.89-4.3h-7.2l-.71,3.45A16.06,16.06,0,0,1,90.38,92.25Z"/><path class="cls-3" d="M88.45,82.66c-.11-.25-.22-.5-.35-.75l-.32-.58-.06-.08a7.91,7.91,0,0,0-2.4-2.55L81,85.5q1.22,2.31.32,6.54a13.46,13.46,0,0,1-3.17,6.63,7.72,7.72,0,0,1-7,2.19l-3.84,6a18.06,18.06,0,0,0,4,.41q7.31,0,11.86-4.4l.07-.07c.2-.19.39-.39.58-.59s.45-.49.67-.74A20.77,20.77,0,0,0,89.12,92,15.2,15.2,0,0,0,88.45,82.66Z"/><polygon class="cls-1" points="33.55 68.51 32.87 68.51 32.19 68.51 26.9 68.51 12.98 96.27 11.05 68.51 0 68.51 5.52 106.01 15.92 106.01 29.09 83.26 30.17 81.45 30.19 81.42 31.15 79.5 31.28 79.27 37.46 68.51 33.55 68.51"/><path class="cls-1" d="M31.56,103.9,33,97.13l.11-.5.1-.51.72-3.39h0l.12-.58.13-.61,1.55-7.34H29.91L27.12,89,23.5,106h7.57l.23-1v0l.13-.59h0l.13-.63"/><polygon class="cls-1" points="36.4 81.13 36.58 80.25 36.75 79.45 36.76 79.31 37.12 77.5 33.68 77.5 33.39 78.11 30.74 82.77 36.05 82.77 36.4 81.13"/><path class="cls-1" d="M58.22,77.49l-.34,1.75a7.23,7.23,0,0,1,1.5,3.53h5.34l.16-.74.19-.93.18-.84v-.15l.53-2.62Z"/><path class="cls-1" d="M59.41,86.38l-.1.81H56.17l-.68,3.3a7.81,7.81,0,0,1,1,1.06v0a7.06,7.06,0,0,1,1.28,6.22,12.27,12.27,0,0,1-5,7.54c-.15.11-.31.09-.47.2l-.13.45h7.57l.56-2.51v0l.15-.69.16-.74,3.8-17.92H59.51A13.67,13.67,0,0,1,59.41,86.38Z"/><path class="cls-1" d="M55.07,86.48h3.06a9.69,9.69,0,0,0-.82-5.8h0c-.12-.2-.25-.43-.38-.61h0a5,5,0,0,0-.41-.5h0a5.33,5.33,0,0,0-.68-.56c-1.93-1.43-4.68-2.13-8.24-2.13a14.92,14.92,0,0,0-9.34,2.85L38,80,35.33,92.36a15.67,15.67,0,0,0,5.44,2.33q6.39,1.59,7.3,2.25a1.72,1.72,0,0,1,.66,1.91,2.78,2.78,0,0,1-1.73,2,8.74,8.74,0,0,1-3.64.66c-2.5,0-4.09-.63-4.79-1.63-.42-.56-.57-1.39-.45-3H34.31l-1.62,7.81c1.8,1.6,4.76,2.47,8.89,2.47,3.91,0,7.05-.67,9.44-2.08l0,0h0l0,0a5.35,5.35,0,0,0,.56-.36l.2-.12.44-.32a11.25,11.25,0,0,0,4.22-6.61,6.12,6.12,0,0,0-1.07-5.37c-.16-.18-.32-.35-.49-.52s-.3-.25-.45-.38-.17-.23-.46-.33h0s0,0,0,0a12.44,12.44,0,0,0-3.06-1.45c-.49-.17-1-.32-1.57-.46-4.25-1-6.7-1.66-7.34-2.07a1.52,1.52,0,0,1-.71-1.86,2.85,2.85,0,0,1,1.39-1.78,7,7,0,0,1,3.63-.76c2,0,3.26.54,3.88,1.56a4.27,4.27,0,0,1,.34,2.31Zm-4,18.58Z"/><path class="cls-3" d="M48.74,124.87a4.54,4.54,0,0,1-1.54-.23,3.08,3.08,0,0,1-1.1-.66,2.33,2.33,0,0,1-.63-1,3,3,0,0,1-.13-1.15,3.65,3.65,0,0,1,1.34-2.59,5.91,5.91,0,0,1,3.12-1.17c.66-.08,1.23-.14,1.72-.18a8.41,8.41,0,0,0,1.15-.17,1.49,1.49,0,0,0,.58-.28.77.77,0,0,0,.18-.49.66.66,0,0,0-.06-.39.73.73,0,0,0-.28-.24,1.5,1.5,0,0,0-.42-.15,3.08,3.08,0,0,0-.51,0,2.25,2.25,0,0,0-1.17.31,1.39,1.39,0,0,0-.64.89l-.07.28H46.93l.1-.46a4.36,4.36,0,0,1,.79-1.74,4.7,4.7,0,0,1,1.29-1.11,5.3,5.3,0,0,1,1.6-.6,9.09,9.09,0,0,1,1.74-.17,10.54,10.54,0,0,1,1.46.1,4.93,4.93,0,0,1,1.44.41,2.71,2.71,0,0,1,1.1.93,2.34,2.34,0,0,1,.33,1.62,8.69,8.69,0,0,1-.37,1.76l-1.24,4A3.1,3.1,0,0,0,55,123c0,.26-.07.48-.08.66a1.66,1.66,0,0,0,0,.48l.09.45H51.43l0-.51a4,4,0,0,1-.88.44A5.34,5.34,0,0,1,48.74,124.87Zm3.67-4.78a2.67,2.67,0,0,1-.48.08c-.41,0-.82.09-1.23.11-.24,0-.48.07-.71.12a1.83,1.83,0,0,0-.57.22A1.3,1.3,0,0,0,49,121a1.25,1.25,0,0,0-.18.59.48.48,0,0,0,.22.5,1.47,1.47,0,0,0,.83.22,2.2,2.2,0,0,0,1.62-.62A2.41,2.41,0,0,0,52,121c.13-.26.24-.52.34-.78Z"/><path class="cls-4" d="M52.45,113.91a11.69,11.69,0,0,1,1.41.1,4.57,4.57,0,0,1,1.33.38,2.43,2.43,0,0,1,1,.8,2,2,0,0,1,.26,1.37,8,8,0,0,1-.36,1.69l-1.24,4a3.26,3.26,0,0,0-.17.67q-.06.41-.09.69a2.1,2.1,0,0,0,.05.59H51.84l.08-1a3.73,3.73,0,0,1-1.46,1,5.06,5.06,0,0,1-1.72.3,4.27,4.27,0,0,1-1.41-.21,2.78,2.78,0,0,1-1-.58,2,2,0,0,1-.53-.84,2.38,2.38,0,0,1-.11-1,3.2,3.2,0,0,1,1.2-2.33,5.48,5.48,0,0,1,2.92-1.09q1-.12,1.71-.18a7.85,7.85,0,0,0,1.21-.18,1.75,1.75,0,0,0,.75-.37,1.17,1.17,0,0,0,.29-.73,1,1,0,0,0-.12-.62,1,1,0,0,0-.41-.37,1.65,1.65,0,0,0-.54-.19,3.88,3.88,0,0,0-.57,0,2.63,2.63,0,0,0-1.36.36,1.75,1.75,0,0,0-.81,1.12H47.4a3.78,3.78,0,0,1,.72-1.58,4,4,0,0,1,1.17-1,5.2,5.2,0,0,1,1.49-.55,8.37,8.37,0,0,1,1.67-.17m.6,5.51a2.94,2.94,0,0,1-1.16.38c-.41,0-.81.08-1.22.11a6.5,6.5,0,0,0-.77.12,2.35,2.35,0,0,0-.67.27,1.4,1.4,0,0,0-.5.47,1.71,1.71,0,0,0-.24.77.87.87,0,0,0,.38.85,1.86,1.86,0,0,0,1,.28,2.81,2.81,0,0,0,1.1-.2,2.69,2.69,0,0,0,.78-.53,2.77,2.77,0,0,0,.54-.73,6.58,6.58,0,0,0,.36-.82l.36-1m-.6-6.26a9.13,9.13,0,0,0-1.82.18,6,6,0,0,0-1.71.64,5,5,0,0,0-1.39,1.21,4.57,4.57,0,0,0-.86,1.89l-.21.91h1.86a5.35,5.35,0,0,0-1.87,1A4,4,0,0,0,45,121.81a3.27,3.27,0,0,0,.14,1.29,2.7,2.7,0,0,0,.73,1.15,3.39,3.39,0,0,0,1.24.74,4.9,4.9,0,0,0,1.66.26,6,6,0,0,0,2-.34l.33-.13,0,.22h4.51l-.19-.91a1.55,1.55,0,0,1,0-.36c0-.18,0-.4.08-.64a3.42,3.42,0,0,1,.13-.53l1.26-4.09a8.7,8.7,0,0,0,.38-1.85,2.67,2.67,0,0,0-.39-1.85,3.08,3.08,0,0,0-1.25-1.06,5.15,5.15,0,0,0-1.55-.44,11.31,11.31,0,0,0-1.51-.11Zm-1.78,4.44,0-.17a1,1,0,0,1,.47-.66,1.94,1.94,0,0,1,1-.26,3.93,3.93,0,0,1,.45,0,1.15,1.15,0,0,1,.31.11.3.3,0,0,1,.13.12h0a.47.47,0,0,1,0,.14.59.59,0,0,1-.06.26,1.14,1.14,0,0,1-.41.18,6.54,6.54,0,0,1-1.09.16l-.82.08Zm-.76,4.32a1.11,1.11,0,0,1-.63-.16s-.05,0,0-.15a.78.78,0,0,1,.12-.42.75.75,0,0,1,.25-.25,1.91,1.91,0,0,1,.46-.17,5.07,5.07,0,0,1,.68-.11l1.06-.1-.15.31a1.87,1.87,0,0,1-.39.53,2.1,2.1,0,0,1-.57.38,2,2,0,0,1-.79.14Z"/><polygon class="cls-3" points="54.36 124.62 58.71 109.98 62.26 109.98 57.88 124.62 54.36 124.62"/><path class="cls-4" d="M61.75,110.35l-4.14,13.9H54.86L59,110.35h2.76m1-.75H58.43l-.16.54L54.14,124l-.29,1h4.32l.16-.54,4.14-13.89.29-1Z"/><polygon class="cls-3" points="58.42 124.62 62.77 109.98 66.32 109.98 61.95 124.62 58.42 124.62"/><path class="cls-4" d="M65.82,110.35l-4.15,13.9H58.93l4.12-13.9h2.77m1-.75H62.49l-.16.54L58.21,124l-.29,1h4.31l.16-.54,4.15-13.89.29-1Z"/><path class="cls-3" d="M77,124.78a5.07,5.07,0,0,1-1-.1,2.58,2.58,0,0,1-1-.36,1.76,1.76,0,0,1-.68-.77,2.22,2.22,0,0,1-.16-1.22,2.63,2.63,0,0,1,.09-.48c0-.17.09-.34.14-.53l1.45-4.91H74l.83-2.6h1.76l.88-3h3.55l-.89,3h2l-.82,2.6h-2L78,121.14c0,.11-.06.19-.08.26a.86.86,0,0,1,0,.13.62.62,0,0,0,0,.22.34.34,0,0,0,.19.11h.3a7.46,7.46,0,0,0,.95-.06l.57-.07L79,124.66l-.25,0-.87.07Q77.48,124.78,77,124.78Z"/><path class="cls-4" d="M80.56,111.13l-.89,3.06h2L81.07,116h-2l-1.46,5a1.8,1.8,0,0,0-.09.28.82.82,0,0,0,0,.18.76.76,0,0,0,0,.42.58.58,0,0,0,.21.23.55.55,0,0,0,.29.08h.32a8.26,8.26,0,0,0,1-.06l-.65,2.12-.86.07c-.29,0-.58,0-.88,0a5.12,5.12,0,0,1-1-.09,2.24,2.24,0,0,1-.83-.31,1.48,1.48,0,0,1-.55-.61,1.88,1.88,0,0,1-.11-1,2.65,2.65,0,0,1,.07-.44c0-.16.09-.33.14-.51L76.36,116H74.55l.59-1.85h1.77l.88-3.06h2.77m1-.75H77.23l-.16.54-.72,2.52H74.59l-.17.52-.58,1.85-.31,1h1.83l-1.31,4.42c0,.2-.11.38-.15.55a3,3,0,0,0-.09.55,2.47,2.47,0,0,0,.19,1.41,2.18,2.18,0,0,0,.83.92,3,3,0,0,0,1.09.41,5.6,5.6,0,0,0,1.09.1q.46,0,.93,0l.88-.07.5,0,.15-.49.65-2.12.33-1.1-1.14.14a9.08,9.08,0,0,1-.91,0h-.1a1.15,1.15,0,0,1,.06-.21l1.31-4.49h2l.17-.53.58-1.85.31-1h-2l.61-2.1.28-1Z"/><path class="cls-3" d="M67.86,124.87a5.86,5.86,0,0,1-1.94-.29,3.72,3.72,0,0,1-1.49-.92,3.76,3.76,0,0,1-.88-1.52,5.37,5.37,0,0,1-.17-2,7.89,7.89,0,0,1,1.95-4.53,6.4,6.4,0,0,1,2-1.47,5.85,5.85,0,0,1,2.52-.55,6.64,6.64,0,0,1,2,.29,3.92,3.92,0,0,1,1.56.92,3.82,3.82,0,0,1,.93,1.53,5.23,5.23,0,0,1,.19,2.06,9.8,9.8,0,0,1-.3,1.65l-.08.27H66.77l0,.24a1.4,1.4,0,0,0,.32,1.14,1.79,1.79,0,0,0,1.35.42A1.66,1.66,0,0,0,69,122a2,2,0,0,0,.5-.27,2.45,2.45,0,0,0,.4-.39c.13-.16.26-.32.37-.47l.11-.15H74l-.25.54a9.1,9.1,0,0,1-1,1.57,5.12,5.12,0,0,1-2.87,1.86A8.28,8.28,0,0,1,67.86,124.87Zm3.27-7.11c0-.12,0-.24,0-.36a1.36,1.36,0,0,0-.16-.54.84.84,0,0,0-.37-.35,1.78,1.78,0,0,0-.78-.14,2.48,2.48,0,0,0-2.16,1.16,1.82,1.82,0,0,0-.15.23Z"/><path class="cls-4" d="M69.83,113.91a6.15,6.15,0,0,1,1.89.28,3.39,3.39,0,0,1,1.41.82A3.31,3.31,0,0,1,74,116.4a4.68,4.68,0,0,1,.17,1.91,8,8,0,0,1-.29,1.58H66.44a.55.55,0,0,0,0,.17l0,.16,0,.25a1.78,1.78,0,0,0,.42,1.42,2.11,2.11,0,0,0,1.63.55,2.17,2.17,0,0,0,.74-.13,2.23,2.23,0,0,0,.59-.32,2.51,2.51,0,0,0,.47-.45l.38-.48h2.77a7.86,7.86,0,0,1-.91,1.49,4.81,4.81,0,0,1-2.67,1.74,8,8,0,0,1-1.93.21,5.71,5.71,0,0,1-1.82-.27,3.28,3.28,0,0,1-1.34-.83,3.39,3.39,0,0,1-.79-1.37,5.25,5.25,0,0,1-.16-1.91,7.48,7.48,0,0,1,1.86-4.31,5.9,5.9,0,0,1,1.86-1.38,5.47,5.47,0,0,1,2.36-.52m-3,4.23h4.61a3.3,3.3,0,0,0,0-.77,1.78,1.78,0,0,0-.2-.69,1.2,1.2,0,0,0-.52-.5,2.16,2.16,0,0,0-1-.18,3.12,3.12,0,0,0-1,.17,2.69,2.69,0,0,0-.81.47,2.87,2.87,0,0,0-.62.68,5.9,5.9,0,0,0-.45.82m3-5a6.15,6.15,0,0,0-2.68.59,6.73,6.73,0,0,0-2.09,1.56,7.91,7.91,0,0,0-1.41,2.19,8.1,8.1,0,0,0-.64,2.56,5.7,5.7,0,0,0,.19,2.19,4.08,4.08,0,0,0,1,1.67,4,4,0,0,0,1.64,1,6.32,6.32,0,0,0,2.06.31A8.59,8.59,0,0,0,70,125a5.5,5.5,0,0,0,1.73-.75A5.64,5.64,0,0,0,73.05,123a8.7,8.7,0,0,0,1-1.64l.35-.74h0l0-.17.08-.17h0l.06-.21a9.7,9.7,0,0,0,.31-1.71,5.65,5.65,0,0,0-.21-2.22,4,4,0,0,0-1-1.68,4.33,4.33,0,0,0-1.7-1,7.11,7.11,0,0,0-2.13-.31Zm-1.59,4.23.18-.17a2,2,0,0,1,1.39-.47,1.32,1.32,0,0,1,.61.1.49.49,0,0,1,.21.19,1.11,1.11,0,0,1,.11.35Zm-1.13,3.25H70l-.34.43a1.72,1.72,0,0,1-.34.32,1.45,1.45,0,0,1-.41.22,1.32,1.32,0,0,1-.47.08,1.59,1.59,0,0,1-1.07-.3,1,1,0,0,1-.24-.75Z"/><polygon class="cls-3" points="39.47 124.62 39.91 115.94 35.38 124.62 31.7 124.62 31.95 109.98 35.77 109.98 35.18 118.85 39.77 109.98 43.32 109.98 42.87 118.82 47.32 109.98 51.24 109.98 43.12 124.62 39.47 124.62"/><path class="cls-4" d="M50.61,110.35l-7.71,13.9h-3l.5-9.93h0l-5.16,9.93H32.08l.24-13.9h3l-.67,10.18h0L40,110.35h2.92l-.52,10.14h0l5.11-10.14h3.06m1.27-.75H47.09l-.21.42-3.55,7,.34-6.67,0-.79H39.55l-.21.41-3.66,7.06.44-6.67.05-.8H31.58v.74l-.24,13.89V125h4.29l.21-.41,3.62-7-.33,6.57,0,.79h4.27l.22-.39,7.7-13.89.62-1.12Z"/></svg>