<?xml version="1.0" encoding="utf-8"?>
<!-- Generator: Adobe Illustrator 22.1.0, SVG Export Plug-In . SVG Version: 6.00 Build 0)  -->
<svg version="1.1" id="Capa_1" xmlns="http://www.w3.org/2000/svg" xmlns:xlink="http://www.w3.org/1999/xlink" x="0px" y="0px"
	 viewBox="0 0 55.096 55.096" enable-background="new 0 0 55.096 55.096" xml:space="preserve">
<g>
	<circle fill="#F6921E" cx="27.548" cy="27.548" r="27.548"/>
	<path fill="#FFFFFF" d="M39.926,24.139c0.541-3.609-2.209-5.549-5.966-6.844l1.219-4.89l-2.975-0.74l-1.188,4.761
		c-0.782-0.196-1.584-0.379-2.385-0.561l1.197-4.792l-2.975-0.742l-1.219,4.888c-0.647-0.148-1.284-0.293-1.901-0.448l0.003-0.015
		l-4.105-1.024l-0.792,3.178c0,0,2.209,0.506,2.163,0.537c1.205,0.301,1.422,1.098,1.386,1.732L21,24.749
		c0.083,0.021,0.189,0.052,0.31,0.098l-0.315-0.077l-1.946,7.803c-0.148,0.365-0.522,0.914-1.365,0.706
		c0.031,0.043-2.163-0.539-2.163-0.539l-1.477,3.406l3.874,0.966c0.72,0.181,1.426,0.37,2.119,0.548l-1.231,4.945l2.973,0.74
		l1.219-4.89c0.813,0.219,1.601,0.422,2.373,0.615l-1.216,4.869l2.975,0.74l1.231-4.935c5.076,0.961,8.891,0.573,10.498-4.017
		c1.295-3.695-0.064-5.828-2.734-7.218C38.072,28.061,39.535,26.782,39.926,24.139z M33.125,33.674
		c-0.918,3.697-7.142,1.698-9.16,1.197l1.636-6.551C27.619,28.824,34.087,29.821,33.125,33.674z M34.046,24.086
		c-0.838,3.363-6.018,1.653-7.696,1.235l1.481-5.94C29.509,19.799,34.921,20.579,34.046,24.086z"/>
</g>
</svg>
