<?xml version="1.0" encoding="utf-8"?>
<!-- Generator: Adobe Illustrator 22.1.0, SVG Export Plug-In . SVG Version: 6.00 Build 0)  -->
<svg version="1.1" id="Capa_1" xmlns="http://www.w3.org/2000/svg" xmlns:xlink="http://www.w3.org/1999/xlink" x="0px" y="0px"
	 viewBox="0 0 34.546 34.546" enable-background="new 0 0 34.546 34.546" xml:space="preserve">
<g>
	<path fill="#F16928" d="M17.273,0C7.732,0,0,7.732,0,17.273c0,9.541,7.732,17.273,17.273,17.273
		c9.541,0,17.273-7.732,17.273-17.273C34.546,7.732,26.814,0,17.273,0z M8.025,24.147l-5.162-2.298l0.825-1.85l1.905,0.85
		c-1.298-4.245-0.197-8.971,3.044-12.212c1.909-1.909,4.333-3.11,7.004-3.471c2.583-0.343,5.258,0.155,7.531,1.407l-0.98,1.771
		c-1.892-1.043-4.124-1.461-6.284-1.168c-2.227,0.297-4.245,1.298-5.84,2.893c-2.709,2.709-3.625,6.661-2.537,10.207l0.942-2.114
		l1.85,0.825L8.025,24.147z M28.957,13.698c1.294,4.245,0.193,8.971-3.048,12.212c-1.909,1.909-4.329,3.111-7,3.466
		c-0.54,0.075-1.08,0.109-1.616,0.109c-2.064,0-4.115-0.519-5.915-1.511l0.975-1.775c1.896,1.047,4.128,1.461,6.284,1.172
		c2.227-0.297,4.249-1.298,5.84-2.893c2.709-2.709,3.625-6.665,2.537-10.207l-0.942,2.11l-1.85-0.821l2.298-5.162l5.162,2.298
		l-0.821,1.846L28.957,13.698z"/>
	<path fill="#FFFFFF" d="M30.862,14.544l-1.905-0.846c1.294,4.245,0.193,8.971-3.048,12.212c-1.909,1.909-4.329,3.111-7,3.466
		c-0.54,0.075-1.08,0.109-1.616,0.109c-2.064,0-4.115-0.519-5.915-1.511l0.975-1.775c1.896,1.047,4.128,1.461,6.284,1.172
		c2.227-0.297,4.249-1.298,5.84-2.893c2.709-2.709,3.625-6.665,2.537-10.207l-0.942,2.11l-1.85-0.821l2.298-5.162l5.162,2.298
		L30.862,14.544z"/>
	<path fill="#FFFFFF" d="M23.172,6.573l-0.98,1.771c-1.892-1.043-4.124-1.461-6.284-1.168c-2.227,0.297-4.245,1.298-5.84,2.893
		c-2.709,2.709-3.625,6.661-2.537,10.207l0.942-2.114l1.85,0.825l-2.298,5.162l-5.162-2.298l0.825-1.85l1.905,0.85
		c-1.298-4.245-0.197-8.971,3.044-12.212c1.909-1.909,4.333-3.11,7.004-3.471C18.223,4.823,20.899,5.321,23.172,6.573z"/>
</g>
</svg>
