<?xml version="1.0" encoding="utf-8"?>
<!-- Generator: Adobe Illustrator 22.1.0, SVG Export Plug-In . SVG Version: 6.00 Build 0)  -->
<svg version="1.1" id="Capa_1" xmlns="http://www.w3.org/2000/svg" xmlns:xlink="http://www.w3.org/1999/xlink" x="0px" y="0px"
	 viewBox="0 0 241.623 238.707" enable-background="new 0 0 241.623 238.707" xml:space="preserve">
<path fill="#233156" d="M33.809,151.639l0.007,1.776h1.018C34.455,152.852,34.105,152.266,33.809,151.639z"/>
<path opacity="0.05" d="M165.462,92.051L34.163,4.225l-1.102,83.065c4.606-1.237,9.402-1.861,14.354-1.861
	c9.887,0,19.142,2.479,27.508,7.355c8.352,4.876,15.047,11.585,19.923,19.924c2.438,4.189,4.283,8.581,5.51,13.188
	c1.226,4.594,1.846,9.376,1.846,14.32c0,9.874-2.479,19.129-7.355,27.494c-3.909,6.705-9.013,12.325-15.172,16.804l73.051,48.773
	c6.546,4.37,17.824-3.918,17.94-13.186l1.431-113.979C172.174,100.005,169.784,94.937,165.462,92.051z"/>
<path opacity="0.05" d="M88.486,116.408c-4.243-7.266-9.993-13.016-17.26-17.26c-7.266-4.234-15.204-6.356-23.805-6.356
	c-8.602,0-16.53,2.122-23.796,6.356c-7.266,4.244-13.025,9.994-17.259,17.26C2.122,123.674,0,131.612,0,140.214
	c0,8.601,2.122,16.53,6.366,23.796c4.234,7.266,9.993,13.025,17.25,17.26c7.275,4.235,15.204,6.357,23.805,6.357
	c8.602,0,16.54-2.122,23.805-6.357c7.266-4.234,13.016-9.994,17.26-17.26c4.234-7.266,6.357-15.195,6.357-23.796
	C94.843,131.612,92.721,123.674,88.486,116.408z M75.082,144.159c0,1.07-0.389,1.999-1.175,2.776
	c-0.786,0.786-1.705,1.175-2.775,1.175h-15.81v15.81c0,1.061-0.388,1.989-1.175,2.776c-0.777,0.777-1.705,1.175-2.776,1.175h-7.9
	c-1.07,0-1.999-0.398-2.776-1.175c-0.786-0.786-1.175-1.715-1.175-2.776v-15.81h-15.81c-1.07,0-1.989-0.388-2.776-1.175
	c-0.786-0.777-1.174-1.705-1.174-2.776v-7.901c0-1.08,0.388-1.999,1.174-2.785s1.705-1.175,2.776-1.175h15.81v-15.801
	c0-1.071,0.388-1.999,1.175-2.785c0.777-0.777,1.705-1.165,2.776-1.165h7.9c1.071,0,1.999,0.388,2.785,1.165
	c0.777,0.786,1.175,1.714,1.175,2.785v15.801h15.801c1.07,0,1.999,0.388,2.775,1.175c0.786,0.786,1.175,1.705,1.175,2.785V144.159z"
	/>
<path opacity="0.05" d="M207.638,0.341L31.084,0.002L29.884,0l-0.016,1.202L28.71,88.687c0.407-0.148,0.809-0.307,1.219-0.444
	l1.152-87.024l176.556,0.338c18.07,0,32.772,14.732,32.772,32.842v89.891c0,18.109-14.702,32.842-32.776,32.842h-32.786
	l-0.778,62.14c-0.057,4.499-2.138,9.131-5.71,12.709c-3.444,3.452-7.92,5.512-11.971,5.512c-2.326,0-4.443-0.627-6.294-1.864
	L76.707,186.53c-0.375,0.237-0.747,0.477-1.129,0.707l73.843,49.401c2.053,1.373,4.398,2.069,6.967,2.069
	c4.367,0,9.163-2.194,12.829-5.868c3.794-3.801,6.004-8.741,6.066-13.553l0.763-60.939h31.588c18.742,0,33.989-15.278,33.989-34.057
	V34.398C241.623,15.619,226.377,0.341,207.638,0.341z"/>
<g opacity="0.05">
	<path d="M202.444,41.981c-0.495-0.415-1.143-0.634-1.901-0.68c-0.774-0.035-1.852,0.167-3.265,0.614l-3.192,1.011l1.693,5.353
		c0.249,0.764,0.419,1.195,0.505,1.321c0.116,0.137,0.245,0.229,0.403,0.245c0.151,0.018,0.531-0.062,1.134-0.253l1.804-0.571
		c1.05-0.333,1.889-0.704,2.515-1.115c0.631-0.419,1.081-1.013,1.379-1.771c0.284-0.78,0.301-1.589,0.029-2.472
		C203.315,42.927,202.953,42.372,202.444,41.981z"/>
	<path d="M198.668,37.082c0.607-0.451,1.002-0.967,1.201-1.555c0.19-0.598,0.191-1.202-0.005-1.824
		c-0.207-0.652-0.547-1.161-1.028-1.527c-0.457-0.353-1.029-0.524-1.709-0.534c-0.677,0.001-1.82,0.25-3.401,0.751l-2.709,0.858
		l1.907,6.049l2.704-0.856C197.056,37.99,198.068,37.537,198.668,37.082z"/>
	<path d="M189.397,17.934c-12.619,3.994-19.634,17.506-15.642,30.126c3.993,12.619,17.507,19.635,30.125,15.642
		c12.619-3.993,19.635-17.507,15.643-30.125C215.528,20.957,202.016,13.942,189.397,17.934z M210.118,46.318
		c-0.432,1.364-1.287,2.565-2.556,3.59c-0.453,0.369-1.012,0.746-1.676,1.101l1.398,4.418l-4.188,1.325l-1.289-4.074l-2.698,0.854
		l1.289,4.073l-4.188,1.325l-1.289-4.073l-6.397,2.024l-1.081-3.416l0.966-0.306c0.658-0.209,1.079-0.408,1.274-0.59
		c0.193-0.188,0.304-0.402,0.337-0.638c0.029-0.242-0.074-0.714-0.301-1.432l-4.367-13.795c-0.232-0.737-0.422-1.188-0.581-1.356
		c-0.162-0.175-0.382-0.284-0.642-0.328c-0.267-0.048-0.726,0.032-1.385,0.24l-0.966,0.306l-1.083-3.421l6.391-2.023l-1.287-4.068
		l4.188-1.325l1.287,4.068l2.703-0.855l-1.287-4.068l4.182-1.323l1.382,4.363c0.658-0.081,1.273-0.11,1.806-0.06
		c1.392,0.097,2.567,0.516,3.53,1.253c0.958,0.74,1.616,1.666,1.97,2.783c0.258,0.815,0.33,1.648,0.198,2.493
		c-0.114,0.834-0.404,1.643-0.886,2.425c-0.478,0.775-1.204,1.503-2.168,2.213c1.252-0.071,2.241-0.032,2.964,0.131
		c1.049,0.212,1.968,0.684,2.761,1.423c0.813,0.725,1.384,1.647,1.733,2.751C210.575,43.637,210.571,44.966,210.118,46.318z"/>
</g>
<path opacity="0.05" d="M207.124,152.182c15.358,0,27.852-12.494,27.852-27.852V33.638c0-15.358-12.494-27.852-27.852-27.852
	L38.469,5.463l127.014,85.042c4.992,3.324,8.173,9.459,8.099,15.628l-0.574,46.049H207.124z M169.18,49.508
	c-4.791-15.142,3.628-31.356,18.769-36.148s31.355,3.627,36.148,18.768c4.791,15.142-3.628,31.356-18.769,36.148
	C190.185,73.068,173.971,64.649,169.18,49.508z"/>
</svg>
