<?xml version="1.0" encoding="utf-8"?>
<!-- Generator: Adobe Illustrator 22.1.0, SVG Export Plug-In . SVG Version: 6.00 Build 0)  -->
<svg version="1.1" id="Capa_1" xmlns="http://www.w3.org/2000/svg" xmlns:xlink="http://www.w3.org/1999/xlink" x="0px" y="0px"
	 viewBox="0 0 241.623 238.707" enable-background="new 0 0 241.623 238.707" xml:space="preserve">
<path opacity="0.05" d="M33.809,151.639l0.007,1.776h1.018C34.455,152.852,34.105,152.266,33.809,151.639z"/>
<path opacity="0.05" d="M165.462,92.051L34.163,4.225l-1.102,83.065c4.606-1.237,9.402-1.861,14.354-1.861
	c9.887,0,19.142,2.479,27.508,7.355c8.352,4.876,15.047,11.585,19.923,19.924c2.438,4.189,4.283,8.581,5.51,13.188
	c1.226,4.594,1.846,9.376,1.846,14.32c0,9.874-2.479,19.129-7.355,27.494c-3.909,6.705-9.013,12.325-15.172,16.804l73.051,48.773
	c6.546,4.37,17.824-3.918,17.94-13.186l1.431-113.979C172.174,100.005,169.784,94.937,165.462,92.051z"/>
<path opacity="0.05" d="M207.638,0.341L31.084,0.002L29.884,0l-0.016,1.202L28.71,88.687c0.407-0.148,0.809-0.307,1.219-0.444
	l1.152-87.024l176.556,0.338c18.07,0,32.772,14.732,32.772,32.842v89.891c0,18.109-14.702,32.842-32.776,32.842h-32.786
	l-0.778,62.14c-0.057,4.499-2.138,9.131-5.71,12.709c-3.444,3.452-7.92,5.512-11.971,5.512c-2.326,0-4.443-0.627-6.294-1.864
	L76.707,186.53c-0.375,0.237-0.747,0.477-1.129,0.707l73.843,49.401c2.053,1.373,4.398,2.069,6.967,2.069
	c4.367,0,9.163-2.194,12.829-5.868c3.794-3.801,6.004-8.741,6.066-13.553l0.763-60.939h31.588c18.742,0,33.989-15.278,33.989-34.057
	V34.398C241.623,15.619,226.377,0.341,207.638,0.341z"/>
<g opacity="0.05">
	<g>
		<path d="M202.444,41.981c-0.495-0.415-1.143-0.634-1.901-0.68c-0.774-0.035-1.852,0.167-3.265,0.614l-3.192,1.011l1.693,5.353
			c0.249,0.764,0.419,1.195,0.505,1.321c0.116,0.137,0.245,0.229,0.403,0.245c0.151,0.018,0.531-0.062,1.134-0.253l1.804-0.571
			c1.05-0.333,1.889-0.704,2.515-1.115c0.631-0.419,1.081-1.013,1.379-1.771c0.284-0.78,0.301-1.589,0.029-2.472
			C203.315,42.927,202.953,42.372,202.444,41.981z"/>
		<path d="M198.668,37.082c0.607-0.451,1.002-0.967,1.201-1.555c0.19-0.598,0.191-1.202-0.005-1.824
			c-0.207-0.652-0.547-1.161-1.028-1.527c-0.457-0.353-1.029-0.524-1.709-0.534c-0.677,0.001-1.82,0.25-3.401,0.751l-2.709,0.858
			l1.907,6.049l2.704-0.856C197.056,37.99,198.068,37.537,198.668,37.082z"/>
		<path d="M189.397,17.934c-12.619,3.994-19.634,17.506-15.642,30.126c3.993,12.619,17.507,19.635,30.125,15.642
			c12.619-3.993,19.635-17.507,15.643-30.125C215.528,20.957,202.016,13.942,189.397,17.934z M210.118,46.318
			c-0.432,1.364-1.287,2.565-2.556,3.59c-0.453,0.369-1.012,0.746-1.676,1.101l1.398,4.418l-4.188,1.325l-1.289-4.074l-2.698,0.854
			l1.289,4.073l-4.188,1.325l-1.289-4.073l-6.397,2.024l-1.081-3.416l0.966-0.306c0.658-0.209,1.079-0.408,1.274-0.59
			c0.193-0.188,0.304-0.402,0.337-0.638c0.029-0.242-0.074-0.714-0.301-1.432l-4.367-13.795c-0.232-0.737-0.422-1.188-0.581-1.356
			c-0.162-0.175-0.382-0.284-0.642-0.328c-0.267-0.048-0.726,0.032-1.384,0.24l-0.966,0.306l-1.083-3.421l6.391-2.023l-1.287-4.068
			l4.188-1.325l1.287,4.068l2.703-0.855l-1.287-4.068l4.182-1.323l1.382,4.363c0.658-0.081,1.273-0.11,1.806-0.06
			c1.392,0.097,2.567,0.516,3.53,1.253c0.958,0.74,1.616,1.666,1.97,2.783c0.258,0.815,0.33,1.648,0.198,2.493
			c-0.114,0.834-0.404,1.643-0.886,2.425c-0.478,0.775-1.204,1.503-2.168,2.213c1.252-0.071,2.241-0.032,2.964,0.131
			c1.049,0.212,1.968,0.684,2.761,1.423c0.813,0.725,1.384,1.647,1.733,2.751C210.575,43.637,210.571,44.966,210.118,46.318z"/>
	</g>
	<path d="M207.124,152.182c15.358,0,27.852-12.494,27.852-27.852V33.638c0-15.357-12.494-27.852-27.852-27.852L38.469,5.463
		l127.014,85.042c4.992,3.324,8.173,9.459,8.099,15.628l-0.574,46.049H207.124z M169.18,49.508
		c-4.791-15.142,3.628-31.356,18.769-36.148s31.355,3.627,36.148,18.768c4.791,15.142-3.628,31.356-18.769,36.148
		C190.185,73.068,173.971,64.649,169.18,49.508z"/>
</g>
<g opacity="0.05">
	<path d="M54.805,132.251c-0.01,0-0.02,0-0.03,0c-10.297-0.001-20.593-0.001-30.89-0.002c-0.115,0-0.229,0-0.364,0
		c0,10.634,0,21.225,0,31.843c10.636,0,21.235,0,31.858,0c0-0.146,0-0.274,0-0.402c0-10.294,0-20.587,0-30.881
		c0-0.185,0.004-0.37,0.006-0.555C55.192,132.253,54.999,132.252,54.805,132.251z"/>
	<path d="M88.486,116.408c-4.243-7.266-9.993-13.016-17.259-17.26c-7.266-4.234-15.204-6.356-23.806-6.356
		s-16.53,2.122-23.796,6.356c-7.266,4.244-13.025,9.994-17.259,17.26C2.122,123.674,0,131.612,0,140.214
		c0,8.601,2.122,16.53,6.366,23.796c4.234,7.266,9.993,13.025,17.25,17.26c7.275,4.235,15.204,6.357,23.805,6.357
		s16.54-2.122,23.806-6.357c7.266-4.234,13.016-9.994,17.259-17.26c4.234-7.266,6.356-15.195,6.356-23.796
		C94.843,131.612,92.721,123.674,88.486,116.408z M59.37,165.97c0,1.021-0.512,1.758-1.426,2.033
		c-0.206,0.062-0.43,0.093-0.646,0.093c-11.839,0.005-23.678,0.006-35.517,0.006c-1.122,0-1.915-0.532-2.161-1.465
		c-0.063-0.237-0.088-0.491-0.088-0.737c-0.004-11.849-0.004-23.698-0.002-35.547c0-1.247,0.859-2.092,2.111-2.092
		c5.944-0.001,11.889,0,17.833,0c5.904,0,11.809,0,17.714,0c1.373,0,2.181,0.812,2.181,2.193
		C59.371,142.292,59.371,154.131,59.37,165.97z M67.328,158.013c0,1.297-0.869,2.151-2.136,2.1
		c-0.926-0.037-1.764-0.855-1.821-1.781c-0.008-0.129-0.006-0.259-0.006-0.388c0-11.092,0-22.183,0-33.275
		c0-0.403,0-0.404-0.407-0.404c-11.112,0-22.223-0.005-33.334,0.009c-1.034,0.001-1.792-0.639-2.02-1.372
		c-0.409-1.313,0.521-2.595,1.897-2.598c3.515-0.006,7.029-0.002,10.544-0.002c2.469,0,4.938,0,7.408,0
		c5.924,0,11.848,0.014,17.772-0.012c1.147-0.005,2.116,0.889,2.114,2.118C67.321,134.277,67.328,146.145,67.328,158.013z
		 M75.312,150.036c0,1.268-0.908,2.176-2.11,2.12c-1.003-0.047-1.84-0.89-1.878-1.894c-0.003-0.07-0.002-0.139-0.002-0.209
		c0-10.007,0-20.013,0-30.02c0-1.134,0-2.268,0-3.402c0-0.097,0-0.195,0-0.322c-0.189,0-0.329,0-0.468,0
		c-11.092,0-22.184,0-33.276,0c-1.169,0-2.059-0.796-2.104-1.879c-0.05-1.182,0.85-2.108,2.06-2.109
		c3.933-0.003,7.866-0.003,11.799-0.003c7.916,0,15.831,0,23.747,0.001c1.097,0,1.893,0.525,2.135,1.455
		c0.076,0.29,0.055,0.606,0.063,0.911c0.013,0.464,0.011,0.929,0.018,1.393c0.004,0.318,0.018,0.636,0.018,0.954
		c0.001,5.825,0.001,11.649,0.001,17.474C75.313,139.682,75.314,144.859,75.312,150.036z"/>
</g>
</svg>
