<svg xmlns="http://www.w3.org/2000/svg" xmlns:xlink="http://www.w3.org/1999/xlink" version="1.1" enable-background="new 0 0 236.244 236.244" xml:space="preserve" width="236.244" height="236.244" style=""><rect id="backgroundrect" width="100%" height="100%" x="0" y="0" fill="none" stroke="none"/>

<g class="currentLayer" style=""><title>Layer 1</title><g id="svg_1" class="selected" fill="#c9c9c9" fill-opacity="1">
	<path d="M118.122,-0.649350643157959 C52.885,-0.649350643157959 0,52.23564935684204 0,117.47264935684204 c0,65.237 52.885,118.122 118.122,118.122 c65.237,0 118.122,-52.885 118.122,-118.122 C236.244,52.23564935684204 183.359,-0.649350643157959 118.122,-0.649350643157959 zM190.957,132.91364935684203 c0,14.699 -11.958,26.657 -26.657,26.657 h-15.036 l-0.42200000000000004,33.591 c-0.11400000000000002,9.065 -8.253,17.321 -17.075,17.321 c-2.616,0 -5.121,-0.7490000000000001 -7.244,-2.166 L52.65,160.32964935684205 c-1.258,-0.8400000000000001 -2.3810000000000002,-1.872 -3.403,-3.132 c-0.8710000000000001,-0.8460000000000001 -1.558,-1.8780000000000001 -1.998,-3.033 c-1.403,-2.6820000000000004 -2.119,-5.719 -2.08,-8.872 l1.103,-87.847 c0.03900000000000001,-3.077 1.758,-5.8870000000000005 4.481,-7.321 c1.229,-0.6470000000000001 2.571,-0.9670000000000001 3.911,-0.9670000000000001 c0.529,0 1.056,0.05000000000000001 1.577,0.14900000000000002 H164.3 c14.699,0 26.657,11.958 26.657,26.657 V132.91364935684203 z" id="svg_2" fill="#c9c9c9" fill-opacity="1"/>
	<g id="svg_3" fill="#c9c9c9" fill-opacity="1">
		<path d="M55.095,151.10164935684205 v0.07500000000000001 h0.05500000000000001 C55.133,151.15064935684205 55.112,151.12764935684203 55.095,151.10164935684205 z" id="svg_4" fill="#c9c9c9" fill-opacity="1"/>
		<path d="M55.095,151.10264935684205 v0.07400000000000001 h0.05500000000000001 C55.133,151.15064935684205 55.112,151.12864935684203 55.095,151.10264935684205 L55.095,151.10264935684205 z" id="svg_5" fill="#c9c9c9" fill-opacity="1"/>
	</g>
	<g id="svg_6" fill="#c9c9c9" fill-opacity="1">
		<path d="M165.787,81.41864935684204 c-0.21900000000000003,-0.6930000000000002 -0.5780000000000001,-1.272 -1.089,-1.7280000000000002 c-0.49700000000000005,-0.464 -1.075,-0.7600000000000001 -1.734,-0.8940000000000001 c-0.454,-0.10200000000000001 -1.074,-0.127 -1.8610000000000002,-0.08200000000000002 c0.6050000000000001,-0.44600000000000006 1.061,-0.903 1.361,-1.3900000000000001 c0.30300000000000005,-0.49200000000000005 0.48400000000000004,-0.999 0.556,-1.5230000000000001 c0.08200000000000002,-0.531 0.037000000000000005,-1.054 -0.12400000000000001,-1.566 c-0.22200000000000003,-0.7010000000000001 -0.6350000000000001,-1.283 -1.237,-1.747 c-0.6050000000000001,-0.463 -1.343,-0.7260000000000001 -2.217,-0.787 c-0.3350000000000001,-0.03200000000000001 -0.7210000000000001,-0.014000000000000002 -1.134,0.038000000000000006 l-0.8670000000000001,-2.74 l-2.6260000000000003,0.8310000000000001 l0.808,2.5540000000000003 l-1.6980000000000002,0.537 l-0.808,-2.5540000000000003 l-2.63,0.8320000000000001 l0.808,2.5540000000000003 l-4.013,1.27 l0.6800000000000002,2.149 l0.6060000000000001,-0.19200000000000003 c0.41300000000000003,-0.131 0.7020000000000001,-0.18000000000000002 0.8700000000000001,-0.15000000000000002 c0.16300000000000003,0.027000000000000007 0.30200000000000005,0.09600000000000003 0.403,0.20600000000000002 c0.1,0.10600000000000001 0.21900000000000003,0.38900000000000007 0.36500000000000005,0.8520000000000001 l2.742,8.663 c0.14300000000000002,0.451 0.20700000000000002,0.7470000000000001 0.18900000000000003,0.8990000000000001 c-0.020000000000000004,0.14800000000000002 -0.09000000000000002,0.28300000000000003 -0.21100000000000002,0.4 c-0.12200000000000001,0.11400000000000002 -0.38700000000000007,0.23900000000000002 -0.8,0.37000000000000005 l-0.6060000000000001,0.19200000000000003 l0.6790000000000002,2.145 l4.017,-1.271 l0.81,2.558 l2.63,-0.8330000000000001 l-0.81,-2.558 l1.6940000000000002,-0.536 l0.809,2.558 l2.63,-0.8320000000000001 l-0.8780000000000001,-2.774 c0.41700000000000004,-0.22400000000000003 0.7680000000000001,-0.46 1.053,-0.6920000000000002 c0.797,-0.6440000000000001 1.334,-1.397 1.604,-2.255 C166.044,83.07564935684204 166.047,82.24164935684205 165.787,81.41864935684204 zM153.764,75.71764935684205 l1.701,-0.538 c0.993,-0.31400000000000006 1.711,-0.47000000000000003 2.135,-0.47200000000000003 c0.42700000000000005,0.007000000000000002 0.787,0.11400000000000002 1.074,0.3360000000000001 c0.30200000000000005,0.22900000000000004 0.516,0.55 0.6450000000000001,0.9590000000000001 c0.12400000000000001,0.39100000000000007 0.12300000000000001,0.77 0.004000000000000001,1.145 c-0.125,0.36900000000000005 -0.37300000000000005,0.6930000000000002 -0.7540000000000001,0.977 c-0.37600000000000006,0.28600000000000003 -1.012,0.5700000000000001 -1.9100000000000001,0.8540000000000001 l-1.6980000000000002,0.537 L153.764,75.71764935684205 zM161.616,83.81064935684203 c-0.18700000000000003,0.47600000000000003 -0.46900000000000003,0.8490000000000001 -0.8650000000000001,1.112 c-0.3940000000000001,0.258 -0.92,0.49100000000000005 -1.58,0.7000000000000001 l-1.133,0.35900000000000004 c-0.37900000000000006,0.12000000000000001 -0.6170000000000001,0.17 -0.7130000000000001,0.15900000000000003 c-0.09900000000000003,-0.010000000000000002 -0.18000000000000002,-0.06800000000000002 -0.253,-0.15300000000000002 c-0.05400000000000001,-0.07900000000000001 -0.16100000000000003,-0.35000000000000003 -0.31700000000000006,-0.8300000000000001 l-1.064,-3.361 l2.005,-0.6340000000000001 c0.8870000000000001,-0.281 1.564,-0.40700000000000003 2.05,-0.38600000000000007 c0.47600000000000003,0.029000000000000005 0.8820000000000001,0.16700000000000004 1.194,0.42700000000000005 c0.31900000000000006,0.24500000000000002 0.547,0.5940000000000001 0.6930000000000002,1.057 C161.805,82.81264935684204 161.794,83.32064935684204 161.616,83.81064935684203 z" id="svg_7" fill="#c9c9c9" fill-opacity="1"/>
		<g id="svg_8" fill="#c9c9c9" fill-opacity="1">
			<path d="M151.838,63.22864935684204 c-9.508,3.009 -14.795,13.191 -11.786,22.7 c3.009,9.508 13.191,14.795 22.699,11.786 c9.508,-3.009 14.795,-13.191 11.786,-22.699 C171.528,65.50664935684205 161.346,60.21964935684204 151.838,63.22864935684204 zM161.842,94.84164935684204 c-7.924,2.508 -16.41,-1.8980000000000001 -18.918,-9.823 c-2.508,-7.924 1.8980000000000001,-16.41 9.823,-18.918 c7.924,-2.508 16.41,1.899 18.918,9.823 C174.173,83.84764935684204 169.766,92.33364935684205 161.842,94.84164935684204 z" id="svg_9" fill="#c9c9c9" fill-opacity="1"/>
		</g>
	</g>
	<path d="M164.3,57.69964935684204 H55.095 v0.127 l-0.19000000000000003,-0.127 l-1.103,87.848 c-0.04300000000000001,3.457 1.307,6.321 3.749,7.952 l71.871,47.985 c0.778,0.519 1.661,0.7540000000000001 2.584,0.7540000000000001 c3.955,0 8.623,-4.315 8.682,-9.033 l0.528,-42.028 H164.3 c10.087,0 18.264,-8.176 18.264,-18.263 v-56.95 C182.564,65.87664935684204 174.387,57.69964935684204 164.3,57.69964935684204 zM138.689,193.17964935684205 c-0.04600000000000001,3.6350000000000002 -3.803,7.058 -6.683,7.058 c-0.5630000000000001,0 -1.058,-0.14 -1.473,-0.41700000000000004 l-71.872,-47.985 c-1.879,-1.255 -2.895,-3.479 -2.8600000000000003,-6.263 l1.057,-84.164 l79.452,53.046 c2.153,1.4380000000000002 3.317,3.976 3.277,7.148 L138.689,193.17964935684205 zM180.564,132.91264935684205 c0,8.968 -7.296,16.263 -16.264,16.263 H143 l0.3470000000000001,-27.672 c0.05700000000000001,-4.506 -1.786,-8.342 -5.055,-10.525 l-76.806,-51.28 H164.3 c8.968,0 16.264,7.296 16.264,16.264 V132.91264935684205 z" id="svg_10" fill="#c9c9c9" fill-opacity="1"/>
</g></g></svg>