<?xml version="1.0" encoding="utf-8"?>
<!-- Generator: Adobe Illustrator 22.1.0, SVG Export Plug-In . SVG Version: 6.00 Build 0)  -->
<svg version="1.1" id="Capa_1" xmlns="http://www.w3.org/2000/svg" xmlns:xlink="http://www.w3.org/1999/xlink" x="0px" y="0px"
	 viewBox="0 0 136.78 136.78" enable-background="new 0 0 136.78 136.78" xml:space="preserve">
<circle fill="#FFFFFF" cx="68.39" cy="68.39" r="58.474"/>
<g>
	<path fill="#D56830" d="M68.39,4.783c35.129,0,63.607,28.478,63.607,63.607s-28.478,63.607-63.607,63.607
		c-35.129,0-63.607-28.478-63.607-63.607S33.261,4.783,68.39,4.783 M68.39,0C30.68,0,0,30.68,0,68.39s30.68,68.39,68.39,68.39
		s68.39-30.68,68.39-68.39S106.1,0,68.39,0L68.39,0z"/>
</g>
<g>
	<g>
		<path fill="#F27221" d="M35.792,37.313l58.245,0.112c4.171,0,7.565,3.393,7.565,7.565v31.589c0,4.171-3.393,7.565-7.565,7.565
			H81.098h-2.534l-0.032,2.534l-0.292,23.229c-0.015,1.228-1.455,2.477-2.25,2.477c-0.014,0-0.024-0.001-0.031-0.001L36.117,85.779
			c-0.193-0.129-0.361-0.298-0.499-0.503l-0.102-0.151c-0.156-0.342-0.346-0.968-0.338-1.588L35.792,37.313 M33.26,34.742
			l-0.647,48.761c-0.015,1.219,0.391,2.497,0.85,3.205c0.001,0.002,0.005,0.003,0.008,0.003c0.008,0,0.018-0.003,0.018-0.003
			c0.32,0.477,0.723,0.885,1.203,1.205l39.866,26.616c0.431,0.288,0.921,0.418,1.433,0.418c2.194,0,4.783-2.393,4.816-5.01
			l0.292-23.229h12.938c5.595,0,10.131-4.536,10.131-10.131V44.989c0-5.595-4.536-10.131-10.131-10.131L33.26,34.742L33.26,34.742z"
			/>
	</g>
	<path fill="#233156" d="M94.037,86.707H33.463L33.26,34.741l60.777,0.117c5.595,0,10.131,4.536,10.131,10.131v31.589
		C104.167,82.172,99.631,86.707,94.037,86.707z"/>
	<path fill="#F16922" d="M74.558,114.529L34.692,87.912c-1.354-0.904-2.104-2.493-2.08-4.411l0.647-48.761l45.735,30.592
		c1.505,1.005,2.338,2.771,2.311,4.902l-0.499,39.702C80.766,113.164,76.838,116.051,74.558,114.529z"/>
	<g>
		<g>
			<path fill="#FFFFFF" d="M94.861,48.014c-0.122-0.385-0.32-0.706-0.604-0.958c-0.276-0.257-0.596-0.422-0.962-0.496
				c-0.252-0.057-0.596-0.07-1.032-0.046c0.336-0.247,0.589-0.501,0.755-0.771c0.168-0.273,0.269-0.554,0.309-0.845
				c0.046-0.294,0.021-0.585-0.069-0.869c-0.123-0.389-0.353-0.712-0.686-0.969c-0.336-0.257-0.745-0.403-1.229-0.437
				c-0.186-0.017-0.4-0.007-0.629,0.021l-0.481-1.52l-1.457,0.461l0.448,1.417l-0.942,0.298l-0.448-1.417l-1.459,0.462l0.448,1.417
				l-2.226,0.705l0.377,1.192l0.336-0.106c0.229-0.072,0.389-0.1,0.482-0.083c0.091,0.015,0.167,0.053,0.224,0.114
				c0.056,0.059,0.122,0.216,0.203,0.472l1.521,4.805c0.079,0.25,0.115,0.415,0.105,0.499c-0.011,0.082-0.05,0.157-0.117,0.222
				c-0.068,0.063-0.215,0.133-0.444,0.205l-0.336,0.106l0.376,1.19l2.228-0.705l0.449,1.419l1.459-0.462l-0.449-1.419l0.94-0.297
				l0.449,1.419l1.459-0.462l-0.487-1.539c0.231-0.124,0.426-0.255,0.584-0.384c0.442-0.357,0.74-0.775,0.89-1.25
				C95.004,48.933,95.006,48.47,94.861,48.014z M88.193,44.852l0.944-0.299c0.551-0.174,0.949-0.261,1.185-0.262
				c0.237,0.004,0.436,0.063,0.595,0.186c0.167,0.127,0.286,0.305,0.358,0.532c0.069,0.217,0.068,0.427,0.002,0.635
				c-0.069,0.205-0.207,0.385-0.418,0.542c-0.209,0.159-0.561,0.316-1.06,0.474l-0.942,0.298L88.193,44.852z M92.548,49.34
				c-0.104,0.264-0.26,0.471-0.48,0.617c-0.218,0.143-0.51,0.272-0.876,0.388l-0.628,0.199c-0.21,0.067-0.342,0.094-0.395,0.088
				c-0.055-0.006-0.1-0.038-0.14-0.085c-0.03-0.044-0.089-0.194-0.176-0.46l-0.59-1.865l1.112-0.352
				c0.492-0.156,0.868-0.226,1.137-0.214c0.264,0.016,0.49,0.092,0.662,0.237c0.177,0.136,0.303,0.33,0.384,0.586
				C92.652,48.787,92.647,49.069,92.548,49.34z"/>
		</g>
		<g>
			<g>
				<path fill="#FFFFFF" d="M87.124,37.924c-5.274,1.669-8.206,7.317-6.538,12.591c1.669,5.274,7.317,8.206,12.591,6.538
					c5.274-1.669,8.206-7.317,6.538-12.591C98.046,39.187,92.398,36.255,87.124,37.924z M92.673,55.459
					c-4.395,1.391-9.102-1.053-10.493-5.448c-1.391-4.396,1.053-9.102,5.448-10.493c4.396-1.391,9.102,1.053,10.493,5.448
					C99.513,49.361,97.069,54.068,92.673,55.459z"/>
			</g>
		</g>
	</g>
	<path fill="#F27221" d="M33.26,34.742l60.777,0.117c5.595,0,10.131,4.536,10.131,10.131v31.589c0,5.595-4.536,10.131-10.131,10.131
		H81.099l-0.292,23.229c-0.033,2.617-2.622,5.01-4.816,5.01c-0.512,0-1.002-0.13-1.433-0.418L34.692,87.914
		c-0.48-0.32-0.883-0.729-1.203-1.205c0,0-0.01,0.003-0.018,0.003c-0.004,0-0.007-0.001-0.008-0.003
		c-0.46-0.709-0.865-1.986-0.85-3.205L33.26,34.742 M32.5,33.971l-0.01,0.761l-0.647,48.761c-0.018,1.445,0.476,2.867,0.974,3.634
		l0.228,0.351l0.055,0c0.333,0.42,0.724,0.781,1.166,1.076l39.866,26.616c0.544,0.363,1.17,0.548,1.86,0.548
		c1.261,0,2.667-0.654,3.762-1.749c1.141-1.14,1.805-2.606,1.823-4.021l0.282-22.469h12.178c6.01,0,10.9-4.89,10.9-10.9V44.989
		c0-6.01-4.89-10.9-10.9-10.9l-60.775-0.117L32.5,33.971L32.5,33.971z"/>
</g>
</svg>
