<?xml version="1.0" encoding="utf-8"?>
<!-- Generator: Adobe Illustrator 22.1.0, SVG Export Plug-In . SVG Version: 6.00 Build 0)  -->
<svg version="1.1" id="Capa_1" xmlns="http://www.w3.org/2000/svg" xmlns:xlink="http://www.w3.org/1999/xlink" x="0px" y="0px"
	 viewBox="0 0 326.185 326.185" enable-background="new 0 0 326.185 326.185" xml:space="preserve">
<g>
	<g>
		<path d="M127.669,169.681h-0.789c-2.916,0-5.279,2.364-5.279,5.28v36.516c0,2.916,2.363,5.279,5.279,5.279h0.789
			c2.916,0,5.278-2.363,5.278-5.279v-36.516C132.947,172.045,130.584,169.681,127.669,169.681z"/>
		<path d="M110.362,182h-0.783c-2.915,0-5.278,2.364-5.278,5.28v24.197c0,2.916,2.363,5.279,5.278,5.279h0.783
			c2.914,0,5.279-2.363,5.279-5.279V187.28C115.641,184.364,113.276,182,110.362,182z"/>
		<path d="M93.06,190.798h-0.787c-2.916,0-5.28,2.365-5.28,5.28v15.398c0,2.916,2.365,5.279,5.28,5.279h0.787
			c2.915,0,5.28-2.363,5.28-5.279v-15.398C98.339,193.164,95.975,190.798,93.06,190.798z"/>
		<path d="M76.796,197.102h-0.789c-2.916,0-5.279,2.365-5.279,5.28v9.095c0,2.916,2.363,5.279,5.279,5.279h0.789
			c2.916,0,5.279-2.363,5.279-5.279v-9.095C82.075,199.467,79.711,197.102,76.796,197.102z"/>
		<path d="M82.578,178.605c-0.651-0.652-1.707-0.652-2.358,0l-3.934,3.935l-3.928-3.935c-0.652-0.652-1.712-0.652-2.365,0
			c-0.645,0.651-0.645,1.706,0,2.358l3.935,3.933l-3.929,3.935c-0.651,0.652-0.651,1.707,0,2.359c0.646,0.652,1.707,0.652,2.359,0
			l3.928-3.935l3.934,3.935c0.652,0.652,1.708,0.652,2.358,0c0.652-0.652,0.652-1.707,0-2.359l-3.929-3.935l3.929-3.933
			C83.23,180.311,83.23,179.256,82.578,178.605z"/>
		<path d="M163.092,0C73.019,0,0,73.019,0,163.092c0,90.074,73.019,163.093,163.092,163.093
			c90.074,0,163.092-73.019,163.092-163.093C326.185,73.019,253.166,0,163.092,0z M124.584,233.484
			c-7.107,4.143-14.966,6.243-23.355,6.243c-8.38,0-16.237-2.1-23.354-6.241c-7.09-4.137-12.777-9.827-16.908-16.916
			c-4.147-7.1-6.251-14.956-6.251-23.347c0-8.396,2.104-16.256,6.253-23.36c4.122-7.073,9.812-12.764,16.908-16.908
			c7.112-4.145,14.968-6.245,23.352-6.245c8.39,0,16.248,2.101,23.355,6.243c7.087,4.139,12.776,9.828,16.912,16.91
			c4.145,7.113,6.245,14.971,6.245,23.36c0,8.383-2.101,16.238-6.243,23.347C137.352,223.67,131.662,229.36,124.584,233.484z
			 M209.513,147.076L105.947,77.733l137.52,0.264c12.522,0,22.71,10.188,22.71,22.71v73.95c0,12.522-10.188,22.71-22.71,22.71
			h-27.817l0.468-37.548C216.177,154.789,213.583,149.786,209.513,147.076z M208.956,147.907c3.53,2.351,6.22,6.91,6.16,11.9
			l-0.48,38.56l0.094,0.003l-0.683,54.379c-0.095,7.557-9.29,14.314-14.629,10.751l-58.167-38.836
			c1.453-1.854,2.797-3.812,4.011-5.891c4.541-7.791,6.84-16.385,6.84-25.55c0-9.171-2.3-17.769-6.836-25.552
			c-4.524-7.746-10.74-13.962-18.479-18.482c-7.606-4.433-15.986-6.714-24.914-6.819l0.868-65.44l0.002-0.125L208.956,147.907z
			 M271.469,174.656c-0.001,15.558-12.658,28.214-28.215,28.214h-24.081l-0.626,49.936c-0.084,6.642-4.768,12.062-9.372,14.489
			c-2.128,1.12-4.28,1.688-6.397,1.689c-2.127,0-4.152-0.603-5.856-1.741l-58.635-39.147c0.462-0.492,0.927-0.98,1.37-1.491
			l58.375,38.975c1.402,0.938,3.022,1.405,4.746,1.405c1.756-0.001,3.619-0.487,5.466-1.459c4.08-2.15,8.23-6.925,8.304-12.745
			l0.651-51.91h26.056c14.454,0,26.214-11.76,26.215-26.214V100.71c0-14.453-11.758-26.212-26.21-26.215L102.44,74.224h-0.004
			c-1.1,0-2.07,0.719-2.392,1.771c-0.109,0.357-0.498,35.205-0.824,66.417c-0.671,0.024-1.341,0.052-2.006,0.102
			c0.69-66.343,0.823-66.795,0.917-67.103c0.582-1.906,2.312-3.188,4.305-3.188h0.008l140.814,0.271
			c15.555,0.003,28.21,12.66,28.21,28.215V174.656z"/>
	</g>
	<g>
		<path d="M239.65,107.51c-0.404-0.338-0.932-0.517-1.55-0.554c-0.631-0.028-1.51,0.136-2.662,0.501l-2.603,0.824l1.381,4.364
			c0.203,0.623,0.341,0.975,0.412,1.077c0.095,0.111,0.2,0.187,0.329,0.2c0.123,0.015,0.433-0.05,0.925-0.206l1.471-0.465
			c0.856-0.271,1.54-0.574,2.051-0.909c0.515-0.341,0.881-0.826,1.124-1.444c0.231-0.636,0.245-1.295,0.023-2.016
			C240.36,108.281,240.065,107.828,239.65,107.51z"/>
		<path d="M236.571,103.515c0.495-0.368,0.817-0.789,0.979-1.268c0.155-0.488,0.156-0.98-0.004-1.487
			c-0.168-0.532-0.446-0.947-0.838-1.245c-0.373-0.288-0.839-0.428-1.394-0.436c-0.552,0.001-1.484,0.205-2.773,0.612l-2.209,0.699
			l1.555,4.933l2.205-0.698C235.257,104.256,236.082,103.886,236.571,103.515z"/>
		<path d="M229.012,87.902c-10.29,3.256-16.01,14.274-12.754,24.564c3.256,10.29,14.275,16.01,24.563,12.754
			c10.289-3.256,16.01-14.275,12.755-24.564C250.319,90.367,239.301,84.647,229.012,87.902z M245.908,111.046
			c-0.352,1.113-1.049,2.091-2.084,2.927c-0.37,0.301-0.825,0.608-1.367,0.898l1.14,3.602l-3.415,1.081l-1.051-3.322l-2.2,0.696
			l1.051,3.322l-3.415,1.081l-1.051-3.322l-5.216,1.651l-0.881-2.785l0.788-0.25c0.537-0.17,0.88-0.333,1.039-0.48
			c0.158-0.153,0.248-0.328,0.274-0.521c0.023-0.197-0.061-0.582-0.245-1.167l-3.561-11.249c-0.189-0.601-0.344-0.969-0.474-1.106
			c-0.132-0.143-0.312-0.231-0.523-0.268c-0.218-0.039-0.592,0.026-1.129,0.195l-0.788,0.249l-0.883-2.79l5.211-1.649l-1.05-3.317
			l3.415-1.081l1.049,3.317l2.204-0.698l-1.05-3.316l3.41-1.079l1.126,3.558c0.536-0.066,1.038-0.09,1.473-0.049
			c1.135,0.079,2.093,0.42,2.878,1.022c0.781,0.603,1.318,1.359,1.606,2.27c0.21,0.664,0.269,1.344,0.162,2.033
			c-0.093,0.68-0.329,1.339-0.722,1.978c-0.39,0.632-0.981,1.226-1.768,1.805c1.021-0.058,1.827-0.026,2.417,0.107
			c0.855,0.173,1.605,0.558,2.251,1.16c0.663,0.591,1.128,1.343,1.413,2.243C246.28,108.86,246.277,109.944,245.908,111.046z"/>
	</g>
</g>
</svg>
