<?xml version="1.0" encoding="utf-8"?>
<!-- Generator: Adobe Illustrator 22.0.1, SVG Export Plug-In . SVG Version: 6.00 Build 0)  -->
<svg version="1.1" id="Capa_1" xmlns="http://www.w3.org/2000/svg" xmlns:xlink="http://www.w3.org/1999/xlink" x="0px" y="0px"
	 viewBox="0 0 32.164 32.603" enable-background="new 0 0 32.164 32.603" xml:space="preserve">
<g>
	<g>
		<g>
			<path fill="#D56830" d="M28.978,2.856h-3.251V1.191c0-0.643-0.521-1.164-1.164-1.164s-1.164,0.521-1.164,1.164v1.665H8.764V1.191
				c0-0.643-0.521-1.164-1.164-1.164c-0.643,0-1.164,0.521-1.164,1.164v1.665H3.186c-1.742,0-3.159,1.417-3.159,3.159v23.403
				c0,1.742,1.417,3.159,3.159,3.159h25.792c1.742,0,3.159-1.417,3.159-3.159V6.014C32.136,4.273,30.719,2.856,28.978,2.856z
				 M2.355,6.014c0-0.459,0.372-0.831,0.831-0.831h3.251v1.328c0,0.643,0.521,1.164,1.164,1.164c0.643,0,1.164-0.521,1.164-1.164
				V5.183h14.635v1.328c0,0.643,0.521,1.164,1.164,1.164c0.643,0,1.164-0.521,1.164-1.164V5.183h3.251
				c0.459,0,0.831,0.372,0.831,0.831V8.94H2.355V6.014z M29.809,29.418c0,0.459-0.372,0.831-0.831,0.831H3.186
				c-0.459,0-0.831-0.372-0.831-0.831v-18.15h27.454V29.418L29.809,29.418z"/>
			<path fill="#D56830" d="M28.978,32.603H3.186C1.429,32.603,0,31.174,0,29.418V6.014c0-1.757,1.429-3.186,3.186-3.186H6.41V1.191
				C6.41,0.534,6.944,0,7.601,0c0.657,0,1.191,0.534,1.191,1.191v1.638h14.581V1.191C23.372,0.534,23.906,0,24.563,0
				s1.191,0.534,1.191,1.191v1.638h3.224c1.757,0,3.186,1.429,3.186,3.186v23.403C32.164,31.174,30.735,32.603,28.978,32.603z
				 M3.186,2.883c-1.727,0-3.132,1.405-3.132,3.131v23.403c0,1.727,1.405,3.131,3.132,3.131h25.792c1.727,0,3.131-1.405,3.131-3.131
				V6.014c0-1.727-1.405-3.131-3.131-3.131H25.7V1.191c0-0.627-0.51-1.137-1.137-1.137s-1.137,0.51-1.137,1.137v1.692H8.737V1.191
				c0-0.627-0.51-1.137-1.137-1.137c-0.627,0-1.137,0.51-1.137,1.137v1.692H3.186z M28.978,30.276H3.186
				c-0.473,0-0.858-0.385-0.858-0.858V11.241h27.509v18.177C29.836,29.891,29.451,30.276,28.978,30.276z M2.382,11.295v18.123
				c0,0.443,0.361,0.804,0.804,0.804h25.792c0.443,0,0.804-0.361,0.804-0.804V11.295H2.382z M29.836,8.967H2.327V6.014
				c0-0.473,0.385-0.858,0.858-0.858h3.278v1.355c0,0.627,0.51,1.137,1.136,1.137c0.627,0,1.137-0.51,1.137-1.137V5.156h14.69v1.355
				c0,0.627,0.51,1.137,1.137,1.137c0.627,0,1.136-0.51,1.136-1.137V5.156h3.278c0.473,0,0.859,0.385,0.859,0.858V8.967
				L29.836,8.967z M2.382,8.913h27.4V6.014c0-0.443-0.361-0.804-0.804-0.804h-3.224v1.301c0,0.657-0.534,1.191-1.191,1.191
				c-0.657,0-1.191-0.534-1.191-1.191V5.21H8.791v1.301c0,0.657-0.534,1.191-1.191,1.191S6.41,7.168,6.41,6.511V5.21H3.186
				c-0.443,0-0.804,0.361-0.804,0.804V8.913L2.382,8.913z"/>
		</g>
		<g>
			<path fill="#D56830" d="M15.694,29.039h1.015c1.742,0,3.159-1.417,3.159-3.159v-1.016c0-1.742-1.417-3.159-3.159-3.159h-1.015
				c-1.742,0-3.159,1.417-3.159,3.159v1.016C12.535,27.622,13.952,29.039,15.694,29.039z M14.863,24.865
				c0-0.458,0.373-0.831,0.831-0.831h1.015c0.458,0,0.831,0.373,0.831,0.831v1.016c0,0.458-0.373,0.831-0.831,0.831h-1.015
				c-0.458,0-0.831-0.373-0.831-0.831V24.865L14.863,24.865z"/>
			<path fill="#D56830" d="M16.709,29.067h-1.015c-1.757,0-3.186-1.429-3.186-3.186v-1.016c0-1.757,1.429-3.186,3.186-3.186h1.015
				c1.757,0,3.186,1.429,3.186,3.186v1.016C19.895,27.638,18.466,29.067,16.709,29.067z M15.694,21.734
				c-1.727,0-3.132,1.405-3.132,3.131v1.016c0,1.727,1.405,3.132,3.132,3.132h1.015c1.727,0,3.132-1.405,3.132-3.132v-1.016
				c0-1.727-1.405-3.131-3.132-3.131H15.694L15.694,21.734z M16.709,26.739h-1.015c-0.473,0-0.858-0.385-0.858-0.858v-1.016
				c0-0.473,0.385-0.858,0.858-0.858h1.015c0.473,0,0.858,0.385,0.858,0.858v1.016C17.568,26.354,17.183,26.739,16.709,26.739z
				 M15.694,24.061c-0.443,0-0.804,0.361-0.804,0.804v1.016c0,0.443,0.361,0.804,0.804,0.804h1.015c0.443,0,0.804-0.361,0.804-0.804
				v-1.016c0-0.443-0.361-0.804-0.804-0.804H15.694z"/>
		</g>
		<g>
			<path fill="#D56830" d="M6.628,29.039h1.016c1.742,0,3.159-1.417,3.159-3.159v-1.016c0-1.742-1.417-3.159-3.159-3.159H6.628
				c-1.742,0-3.159,1.417-3.159,3.159v1.016C3.469,27.622,4.886,29.039,6.628,29.039z M5.796,24.865
				c0-0.458,0.373-0.831,0.831-0.831h1.015c0.458,0,0.831,0.373,0.831,0.831v1.016c0,0.458-0.373,0.831-0.831,0.831H6.628
				c-0.458,0-0.831-0.373-0.831-0.831V24.865L5.796,24.865z"/>
			<path fill="#D56830" d="M7.643,29.067H6.628c-1.757,0-3.186-1.429-3.186-3.186v-1.016c0-1.757,1.429-3.186,3.186-3.186h1.016
				c1.757,0,3.186,1.429,3.186,3.186v1.016C10.829,27.638,9.4,29.067,7.643,29.067z M6.628,21.734c-1.727,0-3.132,1.405-3.132,3.131
				v1.016c0,1.727,1.405,3.132,3.132,3.132h1.016c1.727,0,3.131-1.405,3.131-3.132v-1.016c0-1.727-1.405-3.131-3.131-3.131H6.628
				L6.628,21.734z M7.643,26.739H6.628c-0.473,0-0.858-0.385-0.858-0.858v-1.016c0-0.473,0.385-0.858,0.858-0.858h1.016
				c0.473,0,0.858,0.385,0.858,0.858v1.016C8.501,26.354,8.116,26.739,7.643,26.739z M6.628,24.061
				c-0.443,0-0.804,0.361-0.804,0.804v1.016c0,0.443,0.361,0.804,0.804,0.804h1.016c0.443,0,0.804-0.361,0.804-0.804v-1.016
				c0-0.443-0.361-0.804-0.804-0.804H6.628z"/>
		</g>
		<g>
			<path fill="#D56830" d="M24.711,29.039h1.015c1.742,0,3.159-1.417,3.159-3.159v-1.016c0-1.742-1.417-3.159-3.159-3.159h-1.015
				c-1.742,0-3.159,1.417-3.159,3.159v1.016C21.553,27.622,22.97,29.039,24.711,29.039z M23.88,24.865
				c0-0.458,0.373-0.831,0.831-0.831h1.015c0.458,0,0.831,0.373,0.831,0.831v1.016c0,0.458-0.373,0.831-0.831,0.831h-1.015
				c-0.458,0-0.831-0.373-0.831-0.831V24.865z"/>
			<path fill="#D56830" d="M25.727,29.067h-1.015c-1.757,0-3.186-1.429-3.186-3.186v-1.016c0-1.757,1.429-3.186,3.186-3.186h1.015
				c1.757,0,3.186,1.429,3.186,3.186v1.016C28.913,27.638,27.483,29.067,25.727,29.067z M24.711,21.734
				c-1.727,0-3.132,1.405-3.132,3.131v1.016c0,1.727,1.405,3.132,3.132,3.132h1.015c1.727,0,3.131-1.405,3.131-3.132v-1.016
				c0-1.727-1.405-3.131-3.131-3.131H24.711L24.711,21.734z M25.727,26.739h-1.015c-0.473,0-0.858-0.385-0.858-0.858v-1.016
				c0-0.473,0.385-0.858,0.858-0.858h1.015c0.473,0,0.858,0.385,0.858,0.858v1.016C26.585,26.354,26.2,26.739,25.727,26.739z
				 M24.711,24.061c-0.443,0-0.804,0.361-0.804,0.804v1.016c0,0.443,0.361,0.804,0.804,0.804h1.015c0.443,0,0.804-0.361,0.804-0.804
				v-1.016c0-0.443-0.361-0.804-0.804-0.804H24.711z"/>
		</g>
		<g>
			<path fill="#D56830" d="M15.694,19.979h1.015c1.742,0,3.159-1.417,3.159-3.159v-1.016c0-1.742-1.417-3.159-3.159-3.159h-1.015
				c-1.742,0-3.159,1.417-3.159,3.159v1.016C12.535,18.562,13.952,19.979,15.694,19.979z M14.863,15.805
				c0-0.458,0.373-0.831,0.831-0.831h1.015c0.458,0,0.831,0.373,0.831,0.831v1.016c0,0.458-0.373,0.831-0.831,0.831h-1.015
				c-0.458,0-0.831-0.373-0.831-0.831V15.805L14.863,15.805z"/>
			<path fill="#D56830" d="M16.709,20.006h-1.015c-1.757,0-3.186-1.429-3.186-3.186v-1.016c0-1.757,1.429-3.186,3.186-3.186h1.015
				c1.757,0,3.186,1.429,3.186,3.186v1.016C19.895,18.577,18.466,20.006,16.709,20.006z M15.694,12.673
				c-1.727,0-3.132,1.405-3.132,3.132v1.016c0,1.727,1.405,3.132,3.132,3.132h1.015c1.727,0,3.132-1.405,3.132-3.132v-1.016
				c0-1.727-1.405-3.132-3.132-3.132H15.694L15.694,12.673z M16.709,17.679h-1.015c-0.473,0-0.858-0.385-0.858-0.858v-1.016
				c0-0.473,0.385-0.858,0.858-0.858h1.015c0.473,0,0.858,0.385,0.858,0.858v1.016C17.568,17.294,17.183,17.679,16.709,17.679z
				 M15.694,15.001c-0.443,0-0.804,0.361-0.804,0.804v1.016c0,0.443,0.361,0.804,0.804,0.804h1.015c0.443,0,0.804-0.361,0.804-0.804
				v-1.016c0-0.443-0.361-0.804-0.804-0.804H15.694z"/>
		</g>
		<g>
			<path fill="#D56830" d="M24.711,19.979h1.015c1.742,0,3.159-1.417,3.159-3.159v-1.016c0-1.742-1.417-3.159-3.159-3.159h-1.015
				c-1.742,0-3.159,1.417-3.159,3.159v1.016C21.553,18.562,22.97,19.979,24.711,19.979z M23.88,15.805
				c0-0.458,0.373-0.831,0.831-0.831h1.015c0.458,0,0.831,0.373,0.831,0.831v1.016c0,0.458-0.373,0.831-0.831,0.831h-1.015
				c-0.458,0-0.831-0.373-0.831-0.831V15.805z"/>
			<path fill="#D56830" d="M25.727,20.006h-1.015c-1.757,0-3.186-1.429-3.186-3.186v-1.016c0-1.757,1.429-3.186,3.186-3.186h1.015
				c1.757,0,3.186,1.429,3.186,3.186v1.016C28.913,18.577,27.483,20.006,25.727,20.006z M24.711,12.673
				c-1.727,0-3.132,1.405-3.132,3.132v1.016c0,1.727,1.405,3.132,3.132,3.132h1.015c1.727,0,3.131-1.405,3.131-3.132v-1.016
				c0-1.727-1.405-3.132-3.131-3.132H24.711L24.711,12.673z M25.727,17.679h-1.015c-0.473,0-0.858-0.385-0.858-0.858v-1.016
				c0-0.473,0.385-0.858,0.858-0.858h1.015c0.473,0,0.858,0.385,0.858,0.858v1.016C26.585,17.294,26.2,17.679,25.727,17.679z
				 M24.711,15.001c-0.443,0-0.804,0.361-0.804,0.804v1.016c0,0.443,0.361,0.804,0.804,0.804h1.015c0.443,0,0.804-0.361,0.804-0.804
				v-1.016c0-0.443-0.361-0.804-0.804-0.804H24.711z"/>
		</g>
	</g>
</g>
</svg>
