<?xml version="1.0" encoding="utf-8"?>
<!-- Generator: Adobe Illustrator 22.0.1, SVG Export Plug-In . SVG Version: 6.00 Build 0)  -->
<svg version="1.1" id="Capa_1" xmlns="http://www.w3.org/2000/svg" xmlns:xlink="http://www.w3.org/1999/xlink" x="0px" y="0px"
	 viewBox="0 0 136.78 136.78" enable-background="new 0 0 136.78 136.78" xml:space="preserve">
<g>
	<circle fill="#FFFFFF" cx="68.39" cy="68.39" r="58.474"/>
	<g>
		<g>
			<g>
				<path fill="#233156" d="M38.069,38.556l0.205,0.137v-0.066h52.229c4.824,0,8.735,3.911,8.735,8.735v27.237
					c0,4.824-3.911,8.735-8.735,8.735H79.348l-0.252,20.029c-0.028,2.257-2.261,4.32-4.152,4.32c-0.441,0-0.864-0.112-1.235-0.36
					l-34.374-22.95c-0.407-0.272-0.725-0.637-0.999-1.039h-0.061v-0.095c-0.472-0.737-0.746-1.636-0.733-2.669L38.069,38.556
					 M38.069,34.541c-0.641,0-1.283,0.153-1.87,0.463c-1.302,0.686-2.125,2.03-2.143,3.501l-0.528,42.014
					c-0.019,1.507,0.323,2.96,0.994,4.243c0.211,0.553,0.54,1.047,0.957,1.452c0.489,0.603,1.026,1.096,1.628,1.498l34.373,22.949
					c1.015,0.678,2.213,1.036,3.464,1.036c4.219,0,8.112-3.948,8.166-8.284l0.202-16.065h7.191c7.03,0,12.749-5.719,12.749-12.749
					V47.362c0-7.03-5.719-12.749-12.749-12.749h-51.68C38.574,34.565,38.322,34.541,38.069,34.541L38.069,34.541z"/>
			</g>
		</g>
		<g>
			<path fill="#BF512C" d="M90.503,83.333H38.275V38.627h52.228c4.824,0,8.735,3.911,8.735,8.735v27.237
				C99.238,79.423,95.327,83.333,90.503,83.333z"/>
			<path fill="#D56830" d="M73.709,107.322l-34.374-22.95c-1.168-0.78-1.814-2.15-1.793-3.803l0.528-42.014l39.464,26.348
				c1.298,0.867,2.016,2.389,1.993,4.226l-0.43,34.232C79.062,106.146,75.674,108.635,73.709,107.322z"/>
			<g>
				<g>
					<path fill="#FFFFFF" d="M91.215,49.971c-0.105-0.332-0.276-0.608-0.521-0.826c-0.238-0.222-0.514-0.364-0.829-0.428
						c-0.217-0.049-0.514-0.061-0.89-0.039c0.289-0.213,0.507-0.432,0.651-0.665c0.145-0.235,0.231-0.478,0.266-0.728
						c0.039-0.254,0.018-0.504-0.06-0.749c-0.106-0.335-0.304-0.614-0.591-0.836c-0.289-0.222-0.642-0.347-1.06-0.376
						c-0.16-0.015-0.345-0.007-0.543,0.018l-0.415-1.31l-1.256,0.397l0.387,1.222l-0.812,0.257l-0.386-1.222l-1.258,0.398
						l0.387,1.222l-1.919,0.607l0.325,1.028l0.29-0.092c0.198-0.062,0.336-0.086,0.416-0.072c0.078,0.013,0.144,0.046,0.193,0.099
						c0.048,0.051,0.105,0.186,0.175,0.407l1.311,4.143c0.068,0.216,0.099,0.357,0.09,0.43c-0.009,0.071-0.043,0.135-0.101,0.192
						c-0.058,0.054-0.185,0.114-0.383,0.177l-0.29,0.092l0.325,1.026l1.921-0.608l0.387,1.224l1.258-0.398l-0.387-1.223l0.81-0.257
						l0.387,1.223l1.258-0.398l-0.42-1.327c0.2-0.107,0.367-0.22,0.504-0.331c0.381-0.308,0.638-0.668,0.767-1.078
						C91.338,50.763,91.339,50.364,91.215,49.971z M85.465,47.244l0.814-0.257c0.475-0.15,0.818-0.225,1.021-0.226
						c0.204,0.003,0.376,0.054,0.513,0.16c0.144,0.11,0.247,0.263,0.309,0.459c0.059,0.187,0.059,0.368,0.002,0.548
						c-0.06,0.176-0.178,0.332-0.361,0.467c-0.18,0.137-0.484,0.273-0.914,0.409l-0.812,0.257L85.465,47.244z M89.22,51.115
						c-0.089,0.228-0.224,0.406-0.414,0.532c-0.188,0.123-0.44,0.235-0.756,0.335l-0.542,0.171
						c-0.181,0.057-0.295,0.082-0.341,0.076c-0.047-0.005-0.086-0.033-0.121-0.073c-0.026-0.038-0.077-0.167-0.151-0.397
						l-0.509-1.608l0.959-0.303c0.424-0.134,0.748-0.195,0.98-0.185c0.228,0.014,0.422,0.08,0.571,0.204
						c0.153,0.117,0.261,0.284,0.331,0.505C89.31,50.638,89.305,50.88,89.22,51.115z"/>
				</g>
				<g>
					<g>
						<path fill="#FFFFFF" d="M84.543,41.271c-4.547,1.439-7.076,6.309-5.637,10.856c1.439,4.547,6.309,7.076,10.856,5.637
							c4.547-1.439,7.076-6.309,5.637-10.856S89.091,39.832,84.543,41.271z M89.328,56.39c-3.79,1.199-7.848-0.908-9.048-4.698
							c-1.199-3.79,0.908-7.848,4.698-9.048c3.79-1.199,7.849,0.908,9.048,4.698C95.225,51.132,93.118,55.191,89.328,56.39z"/>
					</g>
				</g>
			</g>
		</g>
	</g>
	<g>
		<path fill="#D56830" d="M68.39,4.783c35.129,0,63.607,28.478,63.607,63.607s-28.478,63.607-63.607,63.607
			c-35.129,0-63.607-28.478-63.607-63.607S33.261,4.783,68.39,4.783 M68.39,0C30.68,0,0,30.68,0,68.39s30.68,68.39,68.39,68.39
			s68.39-30.68,68.39-68.39S106.1,0,68.39,0L68.39,0z"/>
	</g>
</g>
</svg>
