<?xml version="1.0" encoding="utf-8"?>
<!-- Generator: Adobe Illustrator 22.0.1, SVG Export Plug-In . SVG Version: 6.00 Build 0)  -->
<svg version="1.1" id="Capa_1" xmlns="http://www.w3.org/2000/svg" xmlns:xlink="http://www.w3.org/1999/xlink" x="0px" y="0px"
	 viewBox="0 0 26.616 32.32" enable-background="new 0 0 26.616 32.32" xml:space="preserve">
<g>
	<g>
		<path fill="#D56830" d="M24.335,11.407h-3.422V8.745C20.913,3.237,18.375,0,13.308,0S5.703,3.237,5.703,8.745v2.662H1.901
			C0.851,11.407,0,12.638,0,13.688v14.829c0,1.046,0.814,2.164,1.809,2.485l2.275,0.734c0.995,0.321,2.665,0.584,3.711,0.584h11.027
			c1.046,0,2.716-0.262,3.711-0.584l2.275-0.734c0.995-0.321,1.809-1.439,1.809-2.485V13.688
			C26.616,12.638,25.385,11.407,24.335,11.407z M9.506,7.985c0-2.747,1.516-4.182,3.802-4.182s3.802,1.435,3.802,4.182v3.422H9.506
			V7.985z"/>
	</g>
</g>
</svg>
