<?xml version="1.0" encoding="utf-8"?>
<!-- Generator: Adobe Illustrator 22.0.1, SVG Export Plug-In . SVG Version: 6.00 Build 0)  -->
<svg version="1.1" id="Capa_1" xmlns="http://www.w3.org/2000/svg" xmlns:xlink="http://www.w3.org/1999/xlink" x="0px" y="0px"
	 viewBox="0 0 32.164 34.73" enable-background="new 0 0 32.164 34.73" xml:space="preserve">
<g>
	<path fill="#D56830" d="M28.978,9.051c-2.014-2.7-4.882-4.74-8.075-5.746c-0.078-0.024-0.164-0.011-0.23,0.038
		c-0.066,0.049-0.105,0.126-0.105,0.208l0.016,4.146c0,0.111,0.053,0.212,0.137,0.264c3.268,2.004,6.849,4.841,6.849,10.632
		c0,6.335-5.154,11.49-11.49,11.49c-6.336,0-11.49-5.154-11.49-11.49c0-6.049,3.625-8.719,6.964-10.702
		c0.086-0.051,0.14-0.154,0.14-0.266l0.016-4.11c0-0.082-0.039-0.158-0.104-0.207c-0.066-0.049-0.15-0.063-0.229-0.039
		C8.157,4.256,5.26,6.292,3.222,9.002C1.114,11.805,0,15.141,0,18.649C0,27.516,7.214,34.73,16.082,34.73
		c8.867,0,16.082-7.214,16.082-16.081C32.164,15.163,31.062,11.844,28.978,9.051z"/>
	<path fill="#D56830" d="M16.47,0h-0.778c-1.214,0-2.202,0.988-2.202,2.202v18.661c0,1.214,0.988,2.202,2.202,2.202h0.778
		c1.214,0,2.202-0.988,2.202-2.202V2.202C18.672,0.988,17.684,0,16.47,0z"/>
</g>
</svg>
