<?xml version="1.0" encoding="utf-8"?>
<!-- Generator: Adobe Illustrator 22.0.1, SVG Export Plug-In . SVG Version: 6.00 Build 0)  -->
<svg version="1.1" id="Capa_1" xmlns="http://www.w3.org/2000/svg" xmlns:xlink="http://www.w3.org/1999/xlink" x="0px" y="0px"
	 viewBox="0 0 108.598 109.214" enable-background="new 0 0 108.598 109.214" xml:space="preserve">
<g>
	<defs>
		<circle id="SVGID_18_" cx="54.299" cy="54.299" r="54.299"/>
	</defs>
	<clipPath id="SVGID_1_">
		<use xlink:href="#SVGID_18_"  overflow="visible"/>
	</clipPath>
	<g clip-path="url(#SVGID_1_)">
		<circle fill="#B1B2B1" cx="54.299" cy="54.299" r="54.299"/>
		<g>
			<path fill="#FFFFFF" d="M83.822,72.013h-5.905c-6.522,0-11.809-5.288-11.809-11.81V56.41c2.613-3.105,4.486-6.778,5.651-10.659
				c0.121-0.654,0.751-0.977,1.171-1.427c2.261-2.26,2.705-6.075,1.01-8.791c-0.231-0.412-0.647-0.77-0.623-1.28
				c0-3.463,0.017-6.931-0.004-10.391c-0.093-4.177-1.287-8.523-4.215-11.616c-2.364-2.499-5.611-3.987-8.961-4.624
				c-4.233-0.807-8.661-0.767-12.853,0.3c-3.633,0.917-7.046,3.045-9.157,6.199c-1.869,2.742-2.688,6.071-2.826,9.353
				c-0.052,3.523-0.012,7.055-0.023,10.586c0.08,0.707-0.519,1.185-0.79,1.771c-1.597,2.897-0.894,6.845,1.672,8.952
				c0.651,0.449,0.773,1.269,1.009,1.975c1.119,3.489,2.975,6.715,5.322,9.526v3.921c0,6.522-5.288,11.81-11.809,11.81h-5.905
				c0,0-10.702,2.951-17.714,17.713v5.905c0,3.263,2.641,22.228,5.905,22.228h82.664c3.263,0,5.904-18.965,5.904-22.228v-5.905
				C94.524,74.966,83.822,72.013,83.822,72.013z"/>
		</g>
	</g>
</g>
</svg>
