<?xml version="1.0" encoding="utf-8"?>
<!-- Generator: Adobe Illustrator 22.1.0, SVG Export Plug-In . SVG Version: 6.00 Build 0)  -->
<svg version="1.1" id="Capa_1" xmlns="http://www.w3.org/2000/svg" xmlns:xlink="http://www.w3.org/1999/xlink" x="0px" y="0px"
	 viewBox="0 0 21.845 16.643" enable-background="new 0 0 21.845 16.643" xml:space="preserve">
<g>
	<g>
		<path fill="#F16928" d="M14.333,3.031h-0.897v0.846h0.897c0.233,0,0.423-0.19,0.423-0.423C14.756,3.221,14.566,3.031,14.333,3.031
			L14.333,3.031z"/>
		<path fill="#F16928" d="M14.333,4.36h-0.897v0.846h0.897c0.233,0,0.423-0.19,0.423-0.423S14.566,4.36,14.333,4.36L14.333,4.36z"/>
		<path fill="#F16928" d="M13.891,7.635c-1.939,0-3.516-1.577-3.516-3.516s1.577-3.516,3.516-3.516s3.516,1.577,3.516,3.516
			S15.83,7.635,13.891,7.635L13.891,7.635z M16.804,1.206C16.026,0.428,14.991,0,13.891,0s-2.135,0.428-2.913,1.206
			C10.2,1.984,9.772,3.019,9.772,4.119s0.428,2.135,1.206,2.913c0.778,0.778,1.812,1.206,2.913,1.206s2.135-0.428,2.913-1.206
			c0.778-0.778,1.206-1.812,1.206-2.913S17.582,1.984,16.804,1.206L16.804,1.206z"/>
		<path fill="#F16928" d="M15.239,4.784c0,0.4-0.261,0.74-0.622,0.86v0.38h-0.483V5.69H13.84v0.334h-0.483V5.69h-0.404V4.36V3.878
			V2.549h0.404V2.215h0.483v0.334h0.294V2.215h0.483v0.38c0.361,0.12,0.622,0.46,0.622,0.86c0,0.262-0.112,0.499-0.291,0.665
			C15.127,4.285,15.239,4.521,15.239,4.784L15.239,4.784z M13.891,1.086c-1.673,0-3.034,1.361-3.034,3.034s1.361,3.034,3.034,3.034
			s3.034-1.361,3.034-3.034S15.564,1.086,13.891,1.086L13.891,1.086z"/>
	</g>
	<path fill="#F16928" d="M21.011,11.597c-0.168,0-0.337,0.046-0.502,0.138c-1.315,0.726-3.001,1.301-4.51,1.537
		c-0.22,0.034-0.476,0.052-0.761,0.052c-0.736,0-1.588-0.115-2.277-0.308c-0.626-0.175-0.963-0.376-1.058-0.526
		c0.143,0.008,0.399,0.056,0.69,0.111c0.591,0.111,1.4,0.262,2.153,0.262c0.366,0,0.689-0.037,0.959-0.109
		c0.698-0.186,0.939-0.642,0.932-1.006c-0.007-0.363-0.245-0.669-0.58-0.745c-0.157-0.036-0.533-0.157-1.008-0.31
		c-1.351-0.434-3.612-1.161-4.759-1.195c-0.721-0.022-2.454,0.24-3.397,0.394c-0.031,0.005-0.06,0.009-0.088,0.013
		C6.56,9.943,6.309,9.98,6.285,10.336c-0.039,0.601-0.096,1.487-0.155,2.407c-0.07,1.097-0.143,2.243-0.194,3.007
		c-0.002,0.029,0.009,0.197,0.107,0.301c0.051,0.054,0.116,0.083,0.188,0.083c0.089,0,0.182-0.043,0.284-0.13
		c0.487-0.415,0.899-0.589,1.224-0.515c0.657,0.149,6.103,1.154,7.684,1.154h0c0.149,0,0.26-0.009,0.339-0.027
		c1.259-0.292,4.811-2.377,5.544-3.081c0.471-0.452,0.646-0.983,0.47-1.421C21.65,11.795,21.356,11.597,21.011,11.597L21.011,11.597
		z M21.011,11.597"/>
	<path fill="#F16928" d="M4.665,9.84L1.336,9.676c-0.32-0.018-0.635,0.221-0.713,0.526L0.621,10.21l-0.605,5.496
		c-0.037,0.153-0.008,0.307,0.079,0.424c0.089,0.119,0.232,0.191,0.394,0.197h0.005l3.684,0c0.008,0,0.015,0,0.023,0
		c0.319,0,0.588-0.249,0.612-0.567l0.405-5.295c0.012-0.159-0.039-0.312-0.144-0.43C4.969,9.917,4.824,9.847,4.665,9.84L4.665,9.84z
		 M3.492,14.551c0,0.437-0.356,0.793-0.793,0.793c-0.437,0-0.793-0.356-0.793-0.793c0-0.437,0.356-0.793,0.793-0.793
		C3.136,13.759,3.492,14.114,3.492,14.551L3.492,14.551z M3.492,14.551"/>
</g>
</svg>
