<?xml version="1.0" encoding="utf-8"?>
<!-- Generator: Adobe Illustrator 22.1.0, SVG Export Plug-In . SVG Version: 6.00 Build 0)  -->
<svg version="1.1" id="Capa_1" xmlns="http://www.w3.org/2000/svg" xmlns:xlink="http://www.w3.org/1999/xlink" x="0px" y="0px"
	 viewBox="0 0 19.659 15.074" enable-background="new 0 0 19.659 15.074" xml:space="preserve">
<g>
	<path fill="#F16928" d="M0.319,4.546l9.306,3.982C9.689,8.557,9.76,8.571,9.829,8.571c0.072,0,0.14-0.015,0.206-0.043l9.306-3.982
		c0.196-0.085,0.322-0.28,0.317-0.493C19.655,3.84,19.52,3.65,19.321,3.574l-9.305-3.539c-0.12-0.046-0.253-0.046-0.372,0
		L0.338,3.574C0.138,3.65,0.005,3.84,0,4.053C-0.005,4.266,0.121,4.463,0.319,4.546L0.319,4.546z M9.829,1.085l7.907,3.007
		L9.829,7.476L1.922,4.092L9.829,1.085z M9.829,1.085"/>
	<path fill="#F16928" d="M0.319,6.812l9.511,4.072l9.512-4.072c0.266-0.114,0.389-0.423,0.275-0.689
		c-0.113-0.264-0.42-0.389-0.687-0.275L9.829,9.743L0.73,5.849c-0.266-0.114-0.573,0.01-0.687,0.275
		C-0.071,6.39,0.053,6.698,0.319,6.812L0.319,6.812z M0.319,6.812"/>
	<path fill="#F16928" d="M0.319,8.907l9.511,4.071l9.512-4.071c0.266-0.113,0.389-0.421,0.275-0.687
		c-0.113-0.264-0.42-0.391-0.687-0.275l-9.099,3.894L0.73,7.945C0.464,7.831,0.157,7.954,0.043,8.22
		C-0.071,8.486,0.053,8.794,0.319,8.907L0.319,8.907z M0.319,8.907"/>
	<path fill="#F16928" d="M0.319,11.003l9.511,4.071l9.512-4.071c0.266-0.114,0.389-0.421,0.275-0.687
		c-0.113-0.266-0.42-0.389-0.687-0.276l-9.099,3.896L0.73,10.04c-0.266-0.114-0.573,0.01-0.687,0.276
		C-0.071,10.582,0.053,10.889,0.319,11.003L0.319,11.003z M0.319,11.003"/>
</g>
</svg>
