<?xml version="1.0" encoding="utf-8"?>
<!-- Generator: Adobe Illustrator 22.1.0, SVG Export Plug-In . SVG Version: 6.00 Build 0)  -->
<svg version="1.1" id="Capa_1" xmlns="http://www.w3.org/2000/svg" xmlns:xlink="http://www.w3.org/1999/xlink" x="0px" y="0px"
	 viewBox="0 0 18.863 17.015" enable-background="new 0 0 18.863 17.015" xml:space="preserve">
<g>
	<g>
		<path fill="#F16928" d="M10.029,6.899H8.838v1.124h1.191c0.31,0,0.562-0.252,0.562-0.562C10.591,7.152,10.339,6.899,10.029,6.899
			L10.029,6.899z"/>
		<path fill="#F16928" d="M10.029,8.665H8.838V9.79h1.191c0.31,0,0.562-0.252,0.562-0.562S10.339,8.665,10.029,8.665L10.029,8.665z"
			/>
		<path fill="#F16928" d="M9.442,13.016c-2.576,0-4.671-2.095-4.671-4.671s2.095-4.671,4.671-4.671s4.671,2.095,4.671,4.671
			S12.018,13.016,9.442,13.016L9.442,13.016z M13.311,4.475c-1.034-1.033-2.408-1.603-3.869-1.603S6.606,3.442,5.573,4.475
			C4.539,5.509,3.97,6.883,3.97,8.344s0.569,2.836,1.603,3.869c1.034,1.033,2.408,1.603,3.869,1.603s2.836-0.569,3.869-1.603
			c1.033-1.034,1.603-2.408,1.603-3.869S14.345,5.509,13.311,4.475L13.311,4.475z"/>
		<path fill="#F16928" d="M11.232,9.227c0,0.532-0.347,0.984-0.826,1.142v0.504H9.766v-0.443H9.375v0.443H8.733v-0.443H8.197V8.665
			V8.024V6.258h0.537V5.815h0.641v0.443h0.391V5.815h0.641v0.504c0.479,0.159,0.826,0.611,0.826,1.142
			c0,0.349-0.149,0.663-0.387,0.883C11.083,8.564,11.232,8.879,11.232,9.227L11.232,9.227z M9.442,4.315
			c-2.222,0-4.03,1.808-4.03,4.03s1.808,4.03,4.03,4.03s4.03-1.808,4.03-4.03S11.664,4.315,9.442,4.315L9.442,4.315z"/>
	</g>
	<path fill="#F16928" d="M17.231,5.051l-0.033,0.033c-1.32-3.022-4.273-4.991-7.537-5.081C6.34-0.091,3.26,1.759,1.812,4.74
		C1.628,5.109,2.182,5.388,2.366,5.019c1.353-2.768,4.187-4.462,7.262-4.4c3.014,0.094,5.692,1.845,6.955,4.585
		c-0.587,0.246-0.984,0.832-0.984,1.509c0,0.894,0.738,1.632,1.632,1.632c0.894,0,1.632-0.738,1.632-1.632
		C18.863,5.79,18.125,5.051,17.231,5.051L17.231,5.051z M17.231,7.725c-0.586,0-1.017-0.463-1.017-1.017
		c0.004-0.582,0.435-1.046,1.017-1.046c0.587,0,1.017,0.463,1.017,1.046C18.248,7.262,17.818,7.725,17.231,7.725L17.231,7.725z
		 M17.231,7.725"/>
	<path fill="#F16928" d="M16.743,11.814c-1.325,2.829-4.154,4.646-7.262,4.584c-3.108-0.033-5.876-1.845-7.139-4.675
		c0.554-0.279,0.955-0.832,0.955-1.476c-0.004-0.89-0.742-1.632-1.665-1.632C0.738,8.615,0,9.353,0,10.247
		c0,0.923,0.738,1.661,1.632,1.661c0.061,0,0.094-0.033,0.123-0.033v0.033c1.325,3.076,4.339,5.077,7.693,5.105
		c3.355,0.062,6.43-1.878,7.849-4.921C17.453,11.723,16.895,11.445,16.743,11.814L16.743,11.814z M1.632,11.297
		c-0.554,0-1.017-0.463-1.017-1.046c0-0.558,0.463-1.017,1.017-1.017c0.586,0,1.046,0.463,1.046,1.017
		C2.678,10.838,2.214,11.297,1.632,11.297L1.632,11.297z M1.632,11.297"/>
</g>
</svg>
