<?xml version="1.0" encoding="utf-8"?>
<!-- Generator: Adobe Illustrator 22.1.0, SVG Export Plug-In . SVG Version: 6.00 Build 0)  -->
<svg version="1.1" id="Capa_1" xmlns="http://www.w3.org/2000/svg" xmlns:xlink="http://www.w3.org/1999/xlink" x="0px" y="0px"
	 viewBox="0 0 19.715 18.072" enable-background="new 0 0 19.715 18.072" xml:space="preserve">
<g>
	<path fill="#F16928" d="M3.286,12.322H2.464v-2.054H2.054V9.447h0.821c0.227,0,0.411,0.184,0.411,0.411V12.322L3.286,12.322z"/>
	<path fill="#F16928" d="M6.572,16.018H5.75v-2.054H5.339v-0.821h0.821c0.227,0,0.411,0.184,0.411,0.411V16.018L6.572,16.018z"/>
	<path fill="#F16928" d="M2.875,15.197h0.821v-1.232H2.875V15.197L2.875,15.197z M4.107,16.018H2.464
		c-0.227,0-0.411-0.184-0.411-0.411v-2.054c0-0.227,0.184-0.411,0.411-0.411h1.643c0.227,0,0.411,0.184,0.411,0.411v2.054
		C4.518,15.834,4.334,16.018,4.107,16.018L4.107,16.018z"/>
	<path fill="#F16928" d="M4.929,11.5H5.75v-1.232H4.929V11.5L4.929,11.5z M6.161,12.322H4.518c-0.227,0-0.411-0.184-0.411-0.411
		V9.857c0-0.227,0.184-0.411,0.411-0.411h1.643c0.227,0,0.411,0.184,0.411,0.411v2.054C6.572,12.138,6.388,12.322,6.161,12.322
		L6.161,12.322z"/>
	<path fill="#F16928" d="M8.214,11.5h0.821v-1.232H8.214V11.5L8.214,11.5z M9.447,12.322H7.804c-0.227,0-0.411-0.184-0.411-0.411
		V9.857c0-0.227,0.184-0.411,0.411-0.411h1.643c0.227,0,0.411,0.184,0.411,0.411v2.054C9.857,12.138,9.673,12.322,9.447,12.322
		L9.447,12.322z"/>
	<path fill="#F16928" d="M10.268,15.197h0.821v-1.232h-0.821V15.197L10.268,15.197z M11.5,16.018H9.857
		c-0.227,0-0.411-0.184-0.411-0.411v-2.054c0-0.227,0.184-0.411,0.411-0.411H11.5c0.227,0,0.411,0.184,0.411,0.411v2.054
		C11.911,15.834,11.727,16.018,11.5,16.018L11.5,16.018z"/>
	<path fill="#F16928" d="M6.572,8.625H5.75V6.572H5.339V5.75h0.821c0.227,0,0.411,0.184,0.411,0.411V8.625L6.572,8.625z"/>
	<path fill="#F16928" d="M11.911,8.625H11.09V6.572h-0.411V5.75H11.5c0.227,0,0.411,0.184,0.411,0.411V8.625L11.911,8.625z"/>
	<path fill="#F16928" d="M11.911,12.322H11.09v-2.054h-0.411V9.447H11.5c0.227,0,0.411,0.184,0.411,0.411V12.322L11.911,12.322z"/>
	<path fill="#F16928" d="M8.625,16.018H7.804v-2.054H7.393v-0.821h0.821c0.227,0,0.411,0.184,0.411,0.411V16.018L8.625,16.018z"/>
	<path fill="#F16928" d="M2.875,7.804h0.821V6.572H2.875V7.804L2.875,7.804z M4.107,8.625H2.464c-0.227,0-0.411-0.184-0.411-0.411
		V6.161c0-0.227,0.184-0.411,0.411-0.411h1.643c0.227,0,0.411,0.184,0.411,0.411v2.054C4.518,8.441,4.334,8.625,4.107,8.625
		L4.107,8.625z"/>
	<path fill="#F16928" d="M8.214,7.804h0.821V6.572H8.214V7.804L8.214,7.804z M9.447,8.625H7.804c-0.227,0-0.411-0.184-0.411-0.411
		V6.161c0-0.227,0.184-0.411,0.411-0.411h1.643c0.227,0,0.411,0.184,0.411,0.411v2.054C9.857,8.441,9.673,8.625,9.447,8.625
		L9.447,8.625z"/>
	<path fill="#F16928" d="M0.821,17.25h12.322V0.821H4.688L1.402,4.107h2.705V2.054h0.821v2.464c0,0.227-0.184,0.411-0.411,0.411
		H0.821V17.25L0.821,17.25z M13.554,18.072H0.411C0.184,18.072,0,17.888,0,17.661V4.518c0-0.109,0.043-0.213,0.12-0.29L4.228,0.12
		C4.305,0.043,4.409,0,4.518,0h9.036c0.227,0,0.411,0.184,0.411,0.411v17.25C13.965,17.888,13.781,18.072,13.554,18.072
		L13.554,18.072z"/>
	<path fill="#F16928" d="M16.429,18.072h-1.643V17.25h1.232V0.821h-1.232V0h1.643c0.227,0,0.411,0.184,0.411,0.411v17.25
		C16.84,17.888,16.656,18.072,16.429,18.072L16.429,18.072z"/>
	<path fill="#F16928" d="M19.304,18.072h-1.643V17.25h1.232V0.821h-1.232V0h1.643c0.227,0,0.411,0.184,0.411,0.411v17.25
		C19.715,17.888,19.531,18.072,19.304,18.072L19.304,18.072z"/>
	<path fill="#F16928" d="M10.679,4.107H6.161c-0.227,0-0.411-0.184-0.411-0.411V2.054c0-0.227,0.184-0.411,0.411-0.411h4.518v0.821
		H6.572v0.821h4.107V4.107L10.679,4.107z"/>
	<polygon fill="#F16928" points="11.5,1.643 12.322,1.643 12.322,2.464 11.5,2.464 11.5,1.643 	"/>
	<polygon fill="#F16928" points="11.5,3.286 12.322,3.286 12.322,4.107 11.5,4.107 11.5,3.286 	"/>
</g>
</svg>
