<?xml version="1.0" encoding="utf-8"?>
<!-- Generator: Adobe Illustrator 22.1.0, SVG Export Plug-In . SVG Version: 6.00 Build 0)  -->
<svg version="1.1" id="Capa_1" xmlns="http://www.w3.org/2000/svg" xmlns:xlink="http://www.w3.org/1999/xlink" x="0px" y="0px"
	 viewBox="0 0 18.942 16.911" enable-background="new 0 0 18.942 16.911" xml:space="preserve">
<g>
	<path fill="#F16928" d="M18.382,7.642c-1.142-2.84-4.225-4.26-9.25-4.26H6.765V0.677c0-0.183-0.067-0.342-0.201-0.476
		C6.43,0.067,6.271,0,6.088,0C5.905,0,5.746,0.067,5.613,0.201L0.201,5.613C0.067,5.747,0,5.905,0,6.088
		C0,6.271,0.067,6.43,0.201,6.564l5.412,5.412c0.134,0.134,0.293,0.201,0.476,0.201c0.183,0,0.342-0.067,0.476-0.201
		c0.134-0.134,0.201-0.293,0.201-0.476V8.795h2.367c0.691,0,1.31,0.021,1.856,0.063c0.546,0.042,1.088,0.118,1.627,0.227
		c0.539,0.11,1.008,0.259,1.406,0.45c0.398,0.19,0.77,0.434,1.115,0.734c0.345,0.3,0.627,0.656,0.846,1.067
		c0.218,0.412,0.39,0.9,0.512,1.464c0.124,0.564,0.185,1.202,0.185,1.913c0,0.388-0.018,0.821-0.053,1.301
		c0,0.042-0.009,0.125-0.027,0.248c-0.017,0.123-0.026,0.217-0.026,0.28c0,0.105,0.03,0.194,0.089,0.264
		c0.06,0.07,0.143,0.105,0.249,0.105c0.112,0,0.211-0.06,0.296-0.179c0.049-0.063,0.094-0.141,0.138-0.233
		c0.042-0.092,0.089-0.198,0.143-0.317c0.053-0.12,0.09-0.204,0.111-0.253c0.895-2.008,1.342-3.597,1.342-4.767
		C18.942,9.76,18.755,8.586,18.382,7.642L18.382,7.642z M18.382,7.642"/>
</g>
</svg>
