<?xml version="1.0" encoding="utf-8"?>
<!-- Generator: Adobe Illustrator 22.1.0, SVG Export Plug-In . SVG Version: 6.00 Build 0)  -->
<svg version="1.1" id="Capa_1" xmlns="http://www.w3.org/2000/svg" xmlns:xlink="http://www.w3.org/1999/xlink" x="0px" y="0px"
	 viewBox="0 0 15.785 17.539" enable-background="new 0 0 15.785 17.539" xml:space="preserve">
<g>
	<path fill="#F16928" d="M14.031,15.785H1.754V6.138h12.277V15.785L14.031,15.785z M14.031,1.754h-0.877V0H11.4v1.754H4.385V0H2.631
		v1.754H1.754c-0.969,0-1.745,0.785-1.745,1.754L0,15.785c0,0.969,0.785,1.754,1.754,1.754h12.277c0.969,0,1.754-0.785,1.754-1.754
		V3.508C15.785,2.539,15,1.754,14.031,1.754L14.031,1.754z M11.865,8.822l-0.93-0.93l-4.279,4.279l-1.859-1.859l-0.93,0.93
		l2.789,2.789L11.865,8.822L11.865,8.822L11.865,8.822z"/>
</g>
</svg>
