<?xml version="1.0" encoding="utf-8"?>
<!-- Generator: Adobe Illustrator 22.1.0, SVG Export Plug-In . SVG Version: 6.00 Build 0)  -->
<svg version="1.1" id="Capa_1" xmlns="http://www.w3.org/2000/svg" xmlns:xlink="http://www.w3.org/1999/xlink" x="0px" y="0px"
	 viewBox="0 0 16.878 16.878" enable-background="new 0 0 16.878 16.878" xml:space="preserve">
<g>
	<path fill="#F16928" d="M16.51,2.25H0.37C0.165,2.25,0,2.416,0,2.619v2.164h16.878V2.619C16.878,2.416,16.713,2.25,16.51,2.25
		L16.51,2.25z M16.51,2.25"/>
	<path fill="#F16928" d="M0.31,1.97h16.19c0.121,0,0.231-0.072,0.282-0.181c0.051-0.109,0.033-0.239-0.047-0.331L15.039,0h-13.2
		L0.074,1.458C-0.004,1.549-0.022,1.68,0.029,1.79C0.078,1.898,0.19,1.97,0.31,1.97L0.31,1.97z M0.31,1.97"/>
	<path fill="#F16928" d="M4.783,14.065h7.313v-2.813H4.783V14.065z M9.201,13.421c-0.053,0.051-0.126,0.081-0.199,0.081
		c-0.074,0-0.147-0.03-0.201-0.081c-0.051-0.053-0.081-0.126-0.081-0.199c0-0.074,0.03-0.147,0.081-0.201
		c0.104-0.104,0.295-0.104,0.4,0c0.051,0.054,0.081,0.127,0.081,0.201C9.282,13.295,9.252,13.368,9.201,13.421L9.201,13.421z
		 M10.689,13.502h-0.28c-0.155,0-0.282-0.125-0.282-0.28c0-0.157,0.126-0.282,0.282-0.282h0.28c0.155,0,0.282,0.125,0.282,0.282
		C10.971,13.377,10.844,13.502,10.689,13.502L10.689,13.502z M7.596,11.816h3.093c0.155,0,0.282,0.125,0.282,0.28
		c0,0.157-0.126,0.282-0.282,0.282H7.596c-0.155,0-0.282-0.125-0.282-0.282C7.314,11.94,7.441,11.816,7.596,11.816L7.596,11.816z
		 M5.989,11.896c0.107-0.104,0.293-0.104,0.4,0c0.051,0.053,0.081,0.126,0.081,0.199c0,0.074-0.03,0.147-0.081,0.201
		c-0.053,0.051-0.126,0.081-0.199,0.081c-0.077,0-0.147-0.03-0.201-0.081c-0.051-0.054-0.081-0.124-0.081-0.201
		C5.908,12.023,5.938,11.95,5.989,11.896L5.989,11.896z M6.189,12.94h1.407c0.155,0,0.28,0.125,0.28,0.282
		c0,0.155-0.125,0.28-0.28,0.28H6.189c-0.155,0-0.282-0.125-0.282-0.28C5.908,13.065,6.034,12.94,6.189,12.94L6.189,12.94z
		 M6.189,12.94"/>
	<rect x="5.626" y="7.033" fill="#F16928" width="5.626" height="1.688"/>
	<path fill="#F16928" d="M0.843,16.878h15.192V5.063H0.843V16.878z M5.063,6.469h6.753v2.813H5.063V6.469z M4.22,10.689h8.439v3.94
		H4.22V10.689z M4.22,10.689"/>
</g>
</svg>
