<?xml version="1.0" encoding="utf-8"?>
<!-- Generator: Adobe Illustrator 22.1.0, SVG Export Plug-In . SVG Version: 6.00 Build 0)  -->
<svg version="1.1" id="Capa_1" xmlns="http://www.w3.org/2000/svg" xmlns:xlink="http://www.w3.org/1999/xlink" x="0px" y="0px"
	 viewBox="0 0 15.836 16.196" enable-background="new 0 0 15.836 16.196" xml:space="preserve">
<g>
	<path fill="#F16928" d="M5.721,8.935c0-0.203-0.164-0.367-0.368-0.367H4.071c-0.203,0-0.367,0.164-0.367,0.367v1.282
		c0,0.203,0.165,0.368,0.367,0.368h1.283c0.203,0,0.368-0.164,0.368-0.368V8.935z M5.721,8.935"/>
	<path fill="#F16928" d="M8.927,8.935c0-0.203-0.165-0.367-0.367-0.367H7.277c-0.203,0-0.367,0.164-0.367,0.367v1.282
		c0,0.203,0.165,0.368,0.367,0.368H8.56c0.203,0,0.367-0.164,0.367-0.368V8.935z M8.927,8.935"/>
	<path fill="#F16928" d="M12.133,8.935c0-0.203-0.165-0.367-0.367-0.367h-1.283c-0.203,0-0.368,0.164-0.368,0.367v1.282
		c0,0.203,0.165,0.368,0.368,0.368h1.283c0.203,0,0.367-0.164,0.367-0.368V8.935z M12.133,8.935"/>
	<path fill="#F16928" d="M5.721,12.141c0-0.203-0.164-0.368-0.368-0.368H4.071c-0.203,0-0.367,0.164-0.367,0.368v1.282
		c0,0.203,0.165,0.367,0.367,0.367h1.283c0.203,0,0.368-0.164,0.368-0.367V12.141z M5.721,12.141"/>
	<path fill="#F16928" d="M8.927,12.141c0-0.203-0.165-0.368-0.367-0.368H7.277c-0.203,0-0.367,0.164-0.367,0.368v1.282
		c0,0.203,0.165,0.367,0.367,0.367H8.56c0.203,0,0.367-0.164,0.367-0.367V12.141z M8.927,12.141"/>
	<path fill="#F16928" d="M12.133,12.141c0-0.203-0.165-0.368-0.367-0.368h-1.283c-0.203,0-0.368,0.164-0.368,0.368v1.282
		c0,0.203,0.165,0.367,0.368,0.367h1.283c0.203,0,0.367-0.164,0.367-0.367V12.141z M12.133,12.141"/>
	<path fill="#F16928" d="M14.427,1.803v1.959c0,0.885-0.718,1.599-1.604,1.599h-1.012c-0.885,0-1.613-0.714-1.613-1.599V1.796h-4.56
		v1.966c0,0.885-0.728,1.599-1.613,1.599H3.013c-0.885,0-1.604-0.714-1.604-1.599V1.803C0.636,1.827,0,2.467,0,3.254v11.481
		c0,0.802,0.65,1.46,1.452,1.46h12.933c0.801,0,1.452-0.66,1.452-1.46V3.254C15.836,2.467,15.2,1.827,14.427,1.803L14.427,1.803z
		 M13.957,14.02c0,0.346-0.281,0.628-0.628,0.628H2.479c-0.346,0-0.628-0.281-0.628-0.628V8.09c0-0.347,0.281-0.628,0.628-0.628
		h10.85c0.347,0,0.628,0.281,0.628,0.628V14.02z M13.957,14.02"/>
	<path fill="#F16928" d="M3.01,4.311H4.01c0.304,0,0.55-0.246,0.55-0.55V0.55C4.56,0.246,4.314,0,4.01,0H3.01
		C2.706,0,2.46,0.246,2.46,0.55v3.212C2.46,4.065,2.706,4.311,3.01,4.311L3.01,4.311z M3.01,4.311"/>
	<path fill="#F16928" d="M11.799,4.311h1.001c0.304,0,0.55-0.246,0.55-0.55V0.55c0-0.304-0.246-0.55-0.55-0.55h-1.001
		c-0.304,0-0.55,0.246-0.55,0.55v3.212C11.249,4.065,11.495,4.311,11.799,4.311L11.799,4.311z M11.799,4.311"/>
</g>
</svg>
