<?xml version="1.0" encoding="utf-8"?>
<!-- Generator: Adobe Illustrator 22.0.1, SVG Export Plug-In . SVG Version: 6.00 Build 0)  -->
<svg version="1.1" id="Capa_1" xmlns="http://www.w3.org/2000/svg" xmlns:xlink="http://www.w3.org/1999/xlink" x="0px" y="0px"
	 viewBox="0 0 30.62 22.26" enable-background="new 0 0 30.62 22.26" xml:space="preserve">
<g>
	<g>
		<path fill="#D56830" d="M29.581,0H1.038C0.465,0,0,0.465,0,1.038v20.184c0,0.573,0.465,1.038,1.038,1.038h28.543
			c0.573,0,1.038-0.465,1.038-1.038V1.038C30.62,0.465,30.155,0,29.581,0z M28.543,20.184H2.077V2.077h26.467V20.184z"/>
		<path fill="#D56830" d="M4.797,6.968l9.968,6.142c0.167,0.103,0.356,0.154,0.545,0.154c0.189,0,0.378-0.051,0.545-0.154
			l9.968-6.142c0.488-0.301,0.64-0.94,0.339-1.429c-0.301-0.488-0.941-0.64-1.429-0.339l-9.423,5.806L5.887,5.2
			C5.399,4.899,4.759,5.051,4.458,5.539C4.157,6.027,4.309,6.667,4.797,6.968z"/>
	</g>
</g>
</svg>
