<?xml version="1.0" encoding="utf-8"?>
<!-- Generator: Adobe Illustrator 22.1.0, SVG Export Plug-In . SVG Version: 6.00 Build 0)  -->
<svg version="1.1" id="Capa_1" xmlns="http://www.w3.org/2000/svg" xmlns:xlink="http://www.w3.org/1999/xlink" x="0px" y="0px"
	 viewBox="0 0 115.223 115.223" enable-background="new 0 0 115.223 115.223" xml:space="preserve">
<g>
	<path fill="#F16928" d="M115.223,57.611c0,31.817-25.795,57.611-57.611,57.611S0,89.428,0,57.611C0,25.795,25.795,0,57.611,0
		S115.223,25.795,115.223,57.611L115.223,57.611z M115.223,57.611"/>
	<path fill="#DC4E40" d="M20.058,60.189c-0.205,9.914,6.624,19.371,16.017,22.455c8.845,2.974,19.722,0.752,25.609-6.824
		c4.297-5.311,5.275-12.386,4.809-18.995c-7.576-0.071-15.154-0.045-22.715-0.036c-0.015,2.698,0,5.386,0.009,8.083
		c4.534,0.126,9.072,0.071,13.61,0.16c-1.144,3.927-3.756,7.578-7.712,8.996c-7.647,3.365-17.395-1.033-19.802-9.051
		c-2.902-7.682,1.851-16.949,9.698-19.18c4.864-1.71,9.878,0.216,14.041,2.743c2.105-1.97,4.081-4.082,6.022-6.213
		c-4.734-3.956-10.811-6.384-17.059-5.852C30.322,36.621,19.592,47.939,20.058,60.189L20.058,60.189z M20.058,60.189"/>
	<path fill="#DC4E40" d="M81.234,49.98c-0.019,2.262-0.045,4.528-0.055,6.784c-2.271,0.021-4.528,0.035-6.784,0.045v6.76
		c2.257,0.01,4.528,0.019,6.784,0.045c0.021,2.257,0.021,4.513,0.045,6.784c2.246,0,4.503-0.015,6.76,0
		c0.01-2.271,0.021-4.528,0.045-6.795c2.257-0.01,4.524-0.024,6.779-0.035v-6.76c-2.255-0.01-4.522-0.021-6.779-0.045
		c-0.015-2.257-0.035-4.522-0.045-6.779C85.727,49.98,83.48,49.98,81.234,49.98L81.234,49.98z M81.234,49.98"/>
	<path fill="#FFFFFF" d="M20.058,60.189c-0.466-12.25,10.264-23.568,22.525-23.714c6.248-0.531,12.325,1.896,17.059,5.852
		c-1.941,2.131-3.917,4.243-6.022,6.213c-4.168-2.528-9.177-4.458-14.046-2.743c-7.847,2.231-12.601,11.498-9.693,19.175
		c2.402,8.023,12.155,12.421,19.802,9.051c3.956-1.413,6.564-5.064,7.712-8.991c-4.538-0.09-9.076-0.035-13.61-0.16
		c-0.014-2.697-0.024-5.385-0.014-8.083c7.566-0.014,15.144-0.035,22.72,0.031c0.461,6.614-0.512,13.689-4.814,19
		c-5.882,7.576-16.759,9.798-25.609,6.824C26.682,79.56,19.852,70.103,20.058,60.189L20.058,60.189z M20.058,60.189"/>
	<path fill="#FFFFFF" d="M81.234,49.98h6.75c0.01,2.262,0.03,4.528,0.045,6.784c2.257,0.021,4.524,0.035,6.779,0.045v6.76
		c-2.255,0.01-4.522,0.019-6.779,0.035c-0.024,2.267-0.035,4.524-0.045,6.789c-2.257-0.01-4.517,0-6.76,0
		c-0.024-2.266-0.024-4.522-0.045-6.779c-2.257-0.026-4.528-0.035-6.784-0.045v-6.76c2.257-0.015,4.514-0.024,6.784-0.045
		C81.189,54.507,81.21,52.242,81.234,49.98L81.234,49.98z M81.234,49.98"/>
</g>
</svg>
