<?xml version="1.0" encoding="utf-8"?>
<!-- Generator: Adobe Illustrator 22.0.1, SVG Export Plug-In . SVG Version: 6.00 Build 0)  -->
<svg version="1.1" id="Capa_1" xmlns="http://www.w3.org/2000/svg" xmlns:xlink="http://www.w3.org/1999/xlink" x="0px" y="0px"
	 viewBox="0 0 33.253 22.855" enable-background="new 0 0 33.253 22.855" xml:space="preserve">
<g>
	<g>
		<path fill="#D56830" d="M33.253,15.083v4.478c0,0.31-0.086,0.575-0.257,0.798c-0.172,0.223-0.394,0.335-0.669,0.335h-3.861v-4.736
			c0-0.617-0.155-1.175-0.463-1.673c-0.309-0.498-0.721-0.884-1.236-1.158l-3.655-1.699c-0.172-0.103-0.335-0.223-0.49-0.36
			c-0.154-0.137-0.317-0.292-0.489-0.463c0.892-1.373,1.338-2.899,1.338-4.582c0-1.063-0.188-2.11-0.566-3.14
			c0.309-0.206,0.644-0.378,1.004-0.515c0.36-0.137,0.746-0.206,1.158-0.206c1.167,0,2.153,0.481,2.96,1.442
			c0.807,0.96,1.21,2.11,1.21,3.448c0,0.961-0.198,1.819-0.592,2.574c-0.395,0.755-0.918,1.339-1.569,1.75l5.61,2.677
			C33.064,14.258,33.253,14.601,33.253,15.083z"/>
		<path fill="#D56830" d="M11.016,10.655c-0.206,0.274-0.48,0.515-0.823,0.721l-3.809,1.75c-0.515,0.274-0.927,0.66-1.236,1.158
			c-0.309,0.497-0.463,1.055-0.463,1.673v4.735H0.927c-0.275,0-0.498-0.112-0.669-0.335S0,19.869,0,19.561v-4.479
			c0-0.515,0.189-0.858,0.566-1.03l5.714-2.625c-0.686-0.412-1.236-1.003-1.648-1.776c-0.411-0.772-0.617-1.639-0.617-2.6
			c0-1.338,0.403-2.488,1.209-3.448c0.807-0.961,1.793-1.442,2.96-1.442c0.755,0,1.442,0.223,2.059,0.669
			c-0.172,0.48-0.317,0.987-0.437,1.518c-0.12,0.531-0.18,1.089-0.18,1.673c0,0.858,0.119,1.681,0.36,2.471
			C10.227,9.282,10.57,10.003,11.016,10.655z"/>
		<path fill="#D56830" d="M26.716,15.957v5.56c0,0.378-0.112,0.695-0.335,0.952c-0.223,0.257-0.489,0.386-0.797,0.386H7.567
			c-0.343,0-0.627-0.129-0.85-0.386c-0.223-0.257-0.335-0.574-0.335-0.952v-5.559c0-0.618,0.257-1.047,0.772-1.288l5.045-2.316
			l1.955-0.926c-0.892-0.584-1.596-1.39-2.11-2.42c-0.446-0.96-0.669-1.956-0.669-2.985c0-0.549,0.086-1.133,0.257-1.75
			c0.309-1.236,0.909-2.257,1.802-3.062C14.327,0.404,15.375,0,16.576,0c1.201,0,2.256,0.412,3.166,1.236
			c0.909,0.823,1.518,1.887,1.827,3.192c0.069,0.274,0.12,0.54,0.155,0.797c0.035,0.257,0.051,0.523,0.051,0.798
			c0,0.515-0.06,1.012-0.18,1.493c-0.12,0.48-0.266,0.926-0.437,1.338c-0.24,0.549-0.541,1.038-0.901,1.467
			c-0.361,0.429-0.764,0.78-1.21,1.056l2.059,0.977l4.89,2.368C26.475,14.928,26.716,15.339,26.716,15.957z"/>
	</g>
</g>
</svg>
