<?xml version="1.0" encoding="utf-8"?>
<!-- Generator: Adobe Illustrator 22.1.0, SVG Export Plug-In . SVG Version: 6.00 Build 0)  -->
<svg version="1.1" id="Capa_1" xmlns="http://www.w3.org/2000/svg" xmlns:xlink="http://www.w3.org/1999/xlink" x="0px" y="0px"
	 viewBox="0 0 41.552 23.367" enable-background="new 0 0 41.552 23.367" xml:space="preserve">
<g>
	<g>
		<path fill="#F16928" d="M33.567,12.296l-0.52-0.656l0.55-0.733l0.727-0.969l-0.615-1.045l-2.273-3.857l-1.567-2.66l-1.566,2.66
			L26.03,8.893l-0.617,1.045l0.727,0.969l0.55,0.734l-0.52,0.655l-0.761,0.959l0.602,1.066l2.273,4.023l1.583,2.802l1.583-2.802
			l2.273-4.023l0.602-1.066L33.567,12.296z M29.869,5.959l2.273,3.857l-0.263,0.351l0,0l-1.128,1.504l0,0l-0.882,1.176l-2.009-2.68
			l0,0l-0.264-0.352L29.869,5.959z M29.869,17.449l-2.273-4.023l0.223-0.281l0.595,0.794l1.455,1.939l1.455-1.939l0.596-0.795
			l0.223,0.281L29.869,17.449z"/>
		<path fill="#F16928" d="M29.869,1.653c5.539,0,10.03,4.491,10.03,10.03s-4.491,10.03-10.03,10.03s-10.03-4.491-10.03-10.03
			S24.329,1.653,29.869,1.653 M29.869,0c-6.442,0-11.683,5.241-11.683,11.683s5.241,11.683,11.683,11.683
			s11.683-5.241,11.683-11.683S36.311,0,29.869,0L29.869,0z"/>
	</g>
	<g>
		<path fill="#F16928" d="M16.455,12.636c-0.22-0.381-0.521-0.673-0.904-0.879c-0.261-0.149-0.64-0.281-1.135-0.401
			c0.458-0.162,0.826-0.359,1.104-0.603c0.28-0.247,0.488-0.527,0.631-0.837c0.151-0.313,0.222-0.645,0.218-0.992
			c-0.005-0.475-0.151-0.913-0.436-1.314c-0.287-0.4-0.694-0.702-1.223-0.904c-0.201-0.083-0.444-0.144-0.709-0.19l-0.02-1.858
			L12.2,4.677l0.019,1.732l-1.151,0.013L11.049,4.69l-1.783,0.02l0.019,1.732l-2.721,0.03l0.016,1.457L6.99,7.924
			C7.27,7.92,7.458,7.944,7.556,7.995c0.096,0.048,0.168,0.116,0.21,0.203C7.809,8.282,7.829,8.48,7.832,8.793l0.064,5.874
			c0.003,0.306-0.013,0.501-0.053,0.592c-0.04,0.088-0.109,0.158-0.206,0.208c-0.097,0.047-0.284,0.075-0.565,0.078L6.662,15.55
			l0.016,1.454l2.724-0.03l0.019,1.735l1.783-0.02l-0.019-1.734l1.149-0.013l0.019,1.734l1.783-0.019l-0.021-1.881
			c0.3-0.06,0.561-0.14,0.781-0.23c0.614-0.248,1.088-0.613,1.417-1.092c0.337-0.471,0.496-0.987,0.489-1.545
			C16.798,13.44,16.686,13.014,16.455,12.636z M10.441,8.12l1.154-0.013c0.673-0.007,1.147,0.031,1.41,0.111
			c0.263,0.084,0.465,0.218,0.601,0.41c0.144,0.199,0.216,0.437,0.219,0.715c0.003,0.265-0.069,0.499-0.213,0.709
			c-0.147,0.205-0.361,0.359-0.65,0.462c-0.287,0.106-0.733,0.162-1.342,0.169l-1.151,0.013L10.441,8.12z M13.773,14.603
			c-0.205,0.259-0.45,0.437-0.745,0.525c-0.292,0.085-0.662,0.131-1.109,0.136l-0.768,0.008c-0.257,0.003-0.414-0.011-0.471-0.036
			c-0.059-0.025-0.099-0.076-0.128-0.143c-0.019-0.059-0.034-0.246-0.04-0.573l-0.025-2.279l1.359-0.015
			c0.601-0.007,1.044,0.043,1.341,0.147c0.289,0.107,0.514,0.269,0.658,0.489c0.151,0.212,0.226,0.47,0.23,0.784
			C14.078,14.022,13.976,14.334,13.773,14.603z"/>
		<path fill="#F16928" d="M11.683,1.653c5.539,0,10.03,4.491,10.03,10.03s-4.491,10.03-10.03,10.03s-10.03-4.491-10.03-10.03
			S6.144,1.653,11.683,1.653 M11.683,0C5.241,0,0,5.241,0,11.683s5.241,11.683,11.683,11.683s11.683-5.241,11.683-11.683
			S18.126,0,11.683,0L11.683,0z"/>
	</g>
</g>
</svg>
