<?xml version="1.0" encoding="utf-8"?>
<!-- Generator: Adobe Illustrator 22.1.0, SVG Export Plug-In . SVG Version: 6.00 Build 0)  -->
<svg version="1.1" id="Capa_1" xmlns="http://www.w3.org/2000/svg" xmlns:xlink="http://www.w3.org/1999/xlink" x="0px" y="0px"
	 viewBox="0 0 32.164 34.73" enable-background="new 0 0 32.164 34.73" xml:space="preserve">
<path fill="#F16928" d="M20.772,2.125h8.58L27.72,5.391h-8.58L20.772,2.125L20.772,2.125z M28.6,13.168V6.064l1.089-2.177v6.832
	L28.6,13.168L28.6,13.168z M27.512,15.188h-3.81v-4.898h-1.089v4.898h-3.81V6.48h8.708V15.188L27.512,15.188z M22.613,18.454h-2.177
	c-0.207-0.001-0.397,0.116-0.49,0.301l-2.177,4.354h0.005c-0.039,0.075-0.06,0.159-0.06,0.243v4.354h-3.266v-8.708l0,0
	c0.004-0.297-0.234-0.541-0.531-0.544c-0.004,0-0.009,0-0.013,0H7.373v-2.177h4.354c0.215-0.001,0.409-0.128,0.496-0.324l0,0
	l0.004-0.009l0,0l2.031-4.566h3.456v4.354c0,0.301,0.244,0.544,0.544,0.544h4.354V18.454L22.613,18.454z M29.352,19.542
	l-1.633,3.266h-4.018v-3.266H29.352L29.352,19.542z M28.6,30.584v-7.104l1.089-2.177v6.832L28.6,30.584L28.6,30.584z M19.14,22.808
	l1.633-3.266h1.841v3.266H19.14L19.14,22.808z M27.512,32.605h-8.708v-3.81h4.898v-1.089h-4.898v-3.81h8.708V32.605L27.512,32.605z
	 M12.272,30.584v-1.79h0.795L12.272,30.584L12.272,30.584z M11.183,32.605H2.475v-8.708h3.81v4.898h1.089v-4.898h3.81V32.605
	L11.183,32.605z M11.391,22.808H7.373v-3.266h5.651L11.391,22.808L11.391,22.808z M13.36,27.706h-1.089v-4.226l1.089-2.177V27.706
	L13.36,27.706z M4.444,19.542h1.841v3.266H2.811L4.444,19.542L4.444,19.542z M2.475,6.48h8.708v3.81H6.285v1.089h4.898v3.81H2.475
	V6.48L2.475,6.48z M4.444,2.125h8.58l-1.633,3.266h-8.58L4.444,2.125L4.444,2.125z M12.272,10.289V6.064l1.089-2.177v6.403H12.272
	L12.272,10.289z M12.272,11.378h0.795l-0.795,1.79V11.378L12.272,11.378z M17.715,10.289h-3.266V1.581l0,0
	c0.004-0.297-0.234-0.541-0.531-0.544c-0.004,0-0.009,0-0.013,0H4.108c-0.206,0-0.395,0.116-0.487,0.301L1.444,5.692h0.005
	C1.409,5.767,1.388,5.85,1.386,5.935v9.797c0,0.301,0.244,0.544,0.544,0.544h4.354v2.177H4.108c-0.206,0-0.395,0.116-0.487,0.301
	l-2.177,4.354h0.005c-0.04,0.075-0.061,0.158-0.063,0.243v9.797c0,0.301,0.244,0.544,0.544,0.544h9.797
	c0.215-0.001,0.409-0.128,0.496-0.324l0,0l0.004-0.009l0,0l2.031-4.566h3.456v4.354c0,0.301,0.244,0.544,0.544,0.544h9.797
	c0.215-0.001,0.409-0.128,0.496-0.324l0,0l0.004-0.009l0,0l2.173-4.889c0.032-0.07,0.048-0.145,0.049-0.222v-9.253l0,0
	c0.004-0.297-0.234-0.541-0.531-0.544c-0.004,0-0.009,0-0.013,0h-6.531v-2.177h4.354c0.215-0.001,0.409-0.128,0.496-0.324l0,0
	l0.004-0.009l0,0l2.173-4.889c0.032-0.07,0.048-0.145,0.049-0.222V1.581l0,0c0.004-0.297-0.234-0.541-0.531-0.544
	c-0.004,0-0.009,0-0.013,0h-9.797c-0.207-0.001-0.397,0.116-0.49,0.301l-2.177,4.354h0.005c-0.039,0.075-0.06,0.159-0.06,0.243
	V10.289L17.715,10.289z"/>
</svg>
