<?xml version="1.0" encoding="utf-8"?>
<!-- Generator: Adobe Illustrator 22.0.1, SVG Export Plug-In . SVG Version: 6.00 Build 0)  -->
<svg version="1.1" id="Capa_1" xmlns="http://www.w3.org/2000/svg" xmlns:xlink="http://www.w3.org/1999/xlink" x="0px" y="0px"
	 viewBox="0 0 41.349 43.204" enable-background="new 0 0 41.349 43.204" xml:space="preserve">
<g>
	<path fill="#D56830" d="M26.865,22.838c-0.285-0.494-0.676-0.873-1.173-1.141c-0.339-0.193-0.831-0.364-1.472-0.521
		c0.594-0.21,1.072-0.465,1.432-0.782c0.363-0.321,0.633-0.684,0.818-1.086c0.196-0.406,0.288-0.837,0.283-1.287
		c-0.007-0.617-0.196-1.185-0.565-1.704c-0.372-0.519-0.9-0.91-1.586-1.173c-0.261-0.107-0.575-0.187-0.92-0.247l-0.026-2.41
		l-2.31,0.025l0.024,2.247l-1.493,0.016l-0.025-2.247l-2.313,0.025l0.024,2.247l-3.53,0.038l0.021,1.89l0.533-0.006
		c0.363-0.004,0.607,0.027,0.734,0.092c0.124,0.062,0.218,0.151,0.273,0.264c0.055,0.109,0.081,0.366,0.085,0.773l0.083,7.62
		c0.004,0.397-0.016,0.65-0.068,0.767c-0.052,0.114-0.141,0.205-0.267,0.27c-0.126,0.061-0.369,0.097-0.732,0.101l-0.533,0.006
		l0.021,1.887l3.533-0.039l0.025,2.25l2.313-0.025l-0.024-2.25l1.49-0.016l0.025,2.25l2.313-0.025l-0.027-2.44
		c0.389-0.078,0.728-0.181,1.014-0.298c0.797-0.322,1.412-0.795,1.838-1.417c0.437-0.612,0.643-1.281,0.635-2.004
		C27.31,23.88,27.164,23.329,26.865,22.838z M19.063,16.979l1.497-0.016c0.873-0.01,1.487,0.04,1.829,0.143
		c0.341,0.11,0.603,0.283,0.779,0.532c0.186,0.258,0.28,0.567,0.284,0.927c0.004,0.343-0.09,0.648-0.277,0.92
		c-0.191,0.266-0.468,0.465-0.844,0.599c-0.372,0.137-0.951,0.21-1.741,0.219l-1.493,0.016L19.063,16.979z M23.386,25.39
		c-0.266,0.336-0.584,0.566-0.966,0.681c-0.379,0.111-0.858,0.169-1.438,0.176l-0.997,0.011c-0.333,0.004-0.537-0.014-0.61-0.047
		c-0.077-0.033-0.128-0.099-0.165-0.185c-0.024-0.076-0.043-0.32-0.051-0.743l-0.032-2.957l1.763-0.019
		c0.78-0.008,1.354,0.055,1.739,0.191c0.375,0.139,0.667,0.349,0.854,0.634c0.196,0.275,0.293,0.61,0.298,1.017
		C23.781,24.636,23.649,25.041,23.386,25.39z"/>
	<g>
		<path fill="#D56830" d="M20.569,6.488C12.206,6.58,5.476,13.457,5.568,21.821c0.091,8.363,6.969,15.093,15.333,15.001
			c8.364-0.091,15.093-6.969,15.001-15.333C35.81,13.126,28.933,6.397,20.569,6.488z M20.873,34.295
			c-6.97,0.076-12.702-5.532-12.778-12.502c-0.076-6.97,5.532-12.702,12.502-12.778c6.97-0.076,12.702,5.532,12.778,12.502
			C33.451,28.487,27.843,34.219,20.873,34.295z"/>
	</g>
	<path fill="#D56830" d="M19.977,40.379l-4.025-3.063l-0.19,1.491c-3.511-1.004-6.678-3.089-8.996-5.95
		c-2.291-2.828-3.664-6.315-3.933-9.937c-0.055-0.742-0.669-1.317-1.413-1.317l0,0c-0.818,0-1.475,0.69-1.416,1.505
		c0.308,4.204,1.9,8.251,4.559,11.533c2.776,3.426,6.602,5.893,10.836,7.007L15.2,43.204l4.665-1.955
		C20.225,41.099,20.287,40.616,19.977,40.379z"/>
	<path fill="#D56830" d="M36.787,8.564c-2.776-3.426-6.602-5.893-10.836-7.007L26.149,0l-4.688,1.964
		c-0.35,0.146-0.41,0.616-0.108,0.846l4.044,3.078l0.19-1.491c3.511,1.004,6.678,3.089,8.996,5.95
		c2.291,2.828,3.664,6.315,3.933,9.938c0.055,0.742,0.669,1.317,1.413,1.317l0,0c0.818,0,1.475-0.69,1.416-1.505
		C41.037,15.893,39.446,11.846,36.787,8.564z"/>
</g>
</svg>
